<?xml version="1.0" encoding="UTF-8" standalone="no"?>
<!DOCTYPE svg PUBLIC "-//W3C//DTD SVG 1.1//EN" "http://www.w3.org/Graphics/SVG/1.1/DTD/svg11.dtd">
<svg xmlns="http://www.w3.org/2000/svg" xmlns:xlink="http://www.w3.org/1999/xlink" version="1.1" width="375pt" height="375pt" viewBox="0 0 375 375">
<g enable-background="new">
<clipPath id="cp0">
<path transform="matrix(.24,0,0,.24,0,0)" d="M 0 0 L 1562.5 0 L 1562.5 1593.75 L 0 1593.75 Z " fill-rule="evenodd"/>
</clipPath>
<g clip-path="url(#cp0)">
<path transform="matrix(.75,0,0,.75,0,0)" d="M 0 0 L 500 0 L 500 510 L 0 510 Z " fill="#ffffff"/>
<path transform="matrix(.75,0,0,.75,0,0)" d="M 0 0 L 500 0 L 500 500 L 0 500 Z " fill="#fbeffe"/>
</g>
<clipPath id="cp1">
<path transform="matrix(.24,0,0,.24,0,0)" d="M 0 0 L 1562.5 0 L 1562.5 1562.5 L 0 1562.5 Z " fill-rule="evenodd"/>
</clipPath>
<g clip-path="url(#cp1)">
<path transform="matrix(.75,0,0,.75,0,0)" d="M 0 0 L 500 0 L 500 500 L 0 500 Z " fill="#ffffff"/>
</g>
<clipPath id="cp2">
<path transform="matrix(.24,0,0,.24,0,0)" d="M 0 0 L 1562.5 0 L 1562.5 1562.5 L 0 1562.5 Z " fill-rule="evenodd"/>
</clipPath>
<g clip-path="url(#cp2)">
<path transform="matrix(.75,0,0,.75,0,0)" d="M 0 0 L 500 0 L 500 500 L 0 500 Z " fill="#fbeffe"/>
</g>
<clipPath id="cp3">
<path transform="matrix(.24,0,0,.24,0,0)" d="M 722.9907 674.44137 L 838.6157 674.44137 L 838.6157 886.94137 L 722.9907 886.94137 Z " fill-rule="evenodd"/>
</clipPath>
<g clip-path="url(#cp3)">
<path transform="matrix(.019935348,0,0,-.019985849,144.7112,229.85584)" stroke-width="50" stroke-linecap="round" stroke-linejoin="round" fill="none" stroke="#0f1d2d" d="M 2505.7032 3375.9454 L 2320.7032 3375.9454 L 2120.5079 2283.914 "/>
<path transform="matrix(.19935346,0,0,.1998585,144.7112,144.876)" d="M 204.59375 174.16407 C 221.73438 156.96094 222.78516 130.22266 206.94532 114.44531 C 191.10938 98.66406 164.375 99.82031 147.23828 117.02734 L 204.59375 174.16407 " fill="#ffffff"/>
<path transform="matrix(.019935348,0,0,-.019985849,144.7112,229.85584)" stroke-width="50" stroke-linecap="round" stroke-linejoin="round" fill="none" stroke="#0f1d2d" d="M 2045.9375 2510.3594 C 2217.3438 2682.3907 2227.8516 2949.7735 2069.4532 3107.5469 C 1911.0938 3265.3594 1643.75 3253.7969 1472.3828 3081.7266 L 2045.9375 2510.3594 Z "/>
<path transform="matrix(.19935346,0,0,.1998585,144.7112,144.876)" d="M 177.51953 111.34375 C 177.51953 111.30078 177.53516 111.26953 177.53907 111.23047 C 167.72657 108.80078 160.08594 117.046878 157.82422 119.84766 L 177.73438 139.4961 L 177.51953 111.34375 " fill="#7dcc4f"/>
<path transform="matrix(.19935346,0,0,.1998585,144.7112,144.876)" d="M 181.66016 143.3711 L 201.71485 163.16407 C 201.71875 163.16407 201.71875 163.16797 201.71875 163.16797 C 201.80078 163.25 201.85157 163.35157 201.90625 163.44532 C 204.9336 160.9414 213.14844 153.01172 210.03516 142.9961 C 209.96875 143.01172 209.90625 143.03907 209.83594 143.03907 L 181.66016 143.3711 " fill="#7dcc4f"/>
<path transform="matrix(.19935346,0,0,.1998585,144.7112,144.876)" d="M 180.02344 139.50782 L 199.91407 119.54297 C 199.92969 119.52344 199.95313 119.51953 199.97266 119.50391 C 190.8125 109.421878 182.52344 110.41406 179.76953 111.13281 C 179.78125 111.19922 179.8086 111.25781 179.8086 111.32422 L 180.02344 139.50782 " fill="#7dcc4f"/>
<path transform="matrix(.19935346,0,0,.1998585,144.7112,144.876)" d="M 181.6914 141.08203 L 209.8086 140.75 C 210.01953 140.75 210.20703 140.8164 210.375 140.91407 C 211.03516 137.67188 211.28516 129.75 201.5625 121.11719 C 201.55078 121.12891 201.55078 121.14453 201.53516 121.15625 L 181.6914 141.08203 " fill="#7dcc4f"/>
<path transform="matrix(.19935346,0,0,.1998585,144.7112,144.876)" d="M 177.63672 127.00781 L 177.51953 111.34375 C 177.51953 111.30078 177.53516 111.26953 177.53907 111.23047 C 167.72657 108.80078 160.08594 117.046878 157.82422 119.84766 L 167.88282 129.77344 C 170.90235 128.32422 174.1914 127.36328 177.63672 127.00781 " fill="#69ab42"/>
<path transform="matrix(.19935346,0,0,.1998585,144.7112,144.876)" d="M 210.23047 151.3164 C 210.8789 148.78516 210.96485 145.98438 210.03516 142.9961 C 209.96875 143.01172 209.90625 143.03907 209.83594 143.03907 L 207.29688 143.07032 C 208.65625 145.63282 209.66016 148.40235 210.23047 151.3164 " fill="#69ab42"/>
<path transform="matrix(.19935346,0,0,.1998585,144.7112,144.876)" d="M 179.92969 126.86719 C 180.17578 126.86328 180.41797 126.85156 180.66797 126.85156 C 184.21875 126.85156 187.64063 127.49219 190.82813 128.66407 L 199.91407 119.54297 C 199.92969 119.52344 199.95313 119.51953 199.97266 119.50391 C 190.8125 109.421878 182.52344 110.41406 179.76953 111.13281 C 179.78125 111.19922 179.8086 111.25781 179.8086 111.32422 L 179.92969 126.86719 " fill="#69ab42"/>
<path transform="matrix(.19935346,0,0,.1998585,144.7112,144.876)" d="M 205.95313 140.79688 L 209.8086 140.75 C 210.01953 140.75 210.20703 140.8164 210.375 140.91407 C 211.03516 137.67188 211.28516 129.75 201.5625 121.11719 C 201.55078 121.12891 201.55078 121.14453 201.53516 121.15625 L 193.10938 129.61719 C 198.35938 132.05469 202.82422 135.96485 205.95313 140.79688 " fill="#69ab42"/>
<path transform="matrix(.19935346,0,0,.1998585,144.7112,144.876)" d="M 231.08594 128.60157 C 240.3711 111.66797 270.13673 88.28516 275.52735 91.24219 C 280.77735 94.12109 277.20704 131.86719 267.92579 148.80078 C 258.64064 165.73438 242.86328 174.9375 232.6914 169.35938 C 222.51953 163.78125 221.80078 145.53125 231.08594 128.60157 " fill="#ffffff"/>
<path transform="matrix(.019935348,0,0,-.019985849,144.7112,229.85584)" stroke-width="50" stroke-linecap="round" stroke-linejoin="round" fill="none" stroke="#0f1d2d" d="M 2310.8594 2965.9844 C 2403.711 3135.3204 2701.3673 3369.1485 2755.2735 3339.5782 C 2807.7735 3310.789 2772.0704 2933.3282 2679.2579 2763.9923 C 2586.4063 2594.6563 2428.6329 2502.625 2326.914 2558.4063 C 2225.1954 2614.1876 2218.0079 2796.6876 2310.8594 2965.9844 Z "/>
<path transform="matrix(.19935346,0,0,.1998585,144.7112,144.876)" d="M 237.78516 129.35938 C 237.78516 129.35938 223.67969 152.15625 235.5664 162.3789 L 243.78907 147.38282 L 237.78516 129.35938 " fill="#7dcc4f"/>
<path transform="matrix(.19935346,0,0,.1998585,144.7112,144.876)" d="M 238.78516 127.51172 L 244.72657 145.67578 L 253.84766 129.03516 L 250.67188 113.796878 C 250.67188 113.796878 243.90625 119.6875 238.78516 127.51172 " fill="#7dcc4f"/>
<path transform="matrix(.19935346,0,0,.1998585,144.7112,144.876)" d="M 252.2539 112.44141 C 252.2539 112.44141 263.0078 101.88281 270.22267 99.171878 L 255.02735 126.88281 L 252.2539 112.44141 " fill="#7dcc4f"/>
<path transform="matrix(.19935346,0,0,.1998585,144.7112,144.876)" d="M 263.6797 143.5625 C 263.6797 143.5625 252.04297 167.71094 237.03125 163.1836 L 245.25782 148.1875 L 263.6797 143.5625 " fill="#7dcc4f"/>
<path transform="matrix(.19935346,0,0,.1998585,144.7112,144.876)" d="M 264.70314 141.72266 L 246.1914 146.48047 L 255.3164 129.83985 L 269.875 124.328128 C 269.875 124.328128 268.54689 133.19922 264.70314 141.72266 " fill="#7dcc4f"/>
<path transform="matrix(.19935346,0,0,.1998585,144.7112,144.876)" d="M 270.16407 122.265628 C 270.16407 122.265628 273.28517 107.51953 271.6914 99.98047 L 256.4961 127.6875 L 270.16407 122.265628 " fill="#7dcc4f"/>
<path transform="matrix(.19935346,0,0,.1998585,144.7112,144.876)" d="M 231.8086 156.94922 C 232.55469 158.96875 233.7539 160.82032 235.5664 162.3789 L 239.53907 155.1289 C 237.08985 156.0664 234.4961 156.6914 231.8086 156.94922 " fill="#69ab42"/>
<path transform="matrix(.19935346,0,0,.1998585,144.7112,144.876)" d="M 254.17969 110.62891 C 256.17189 113.66016 257.63673 117.05469 258.4336 120.67969 L 270.22267 99.171878 C 264.8828 101.17969 257.60157 107.48828 254.17969 110.62891 " fill="#69ab42"/>
<path transform="matrix(.19935346,0,0,.1998585,144.7112,144.876)" d="M 251.71485 146.5664 C 249.03125 149.66016 245.7461 152.22266 242.04688 154.03907 L 237.03125 163.1836 C 252.04297 167.71094 263.6797 143.5625 263.6797 143.5625 L 251.71485 146.5664 " fill="#69ab42"/>
<path transform="matrix(.19935346,0,0,.1998585,144.7112,144.876)" d="M 259.08204 128.41407 C 258.78517 134.4375 256.64845 140.03907 253.23438 144.66797 L 264.70314 141.72266 C 268.54689 133.19922 269.875 124.328128 269.875 124.328128 L 259.08204 128.41407 " fill="#69ab42"/>
<path transform="matrix(.19935346,0,0,.1998585,144.7112,144.876)" d="M 271.6914 99.98047 L 258.88673 123.33203 C 259.01954 124.42578 259.09767 125.53125 259.10939 126.65234 L 270.16407 122.265628 C 270.16407 122.265628 273.28517 107.51953 271.6914 99.98047 " fill="#69ab42"/>
<path transform="matrix(.19935346,0,0,.1998585,144.7112,144.876)" d="M 258.57423 146.8125 C 258.57423 150.51563 239.6836 153.51953 216.3789 153.51953 C 193.07422 153.51953 174.1836 150.51563 174.1836 146.8125 C 174.1836 143.10938 193.07422 140.10938 216.3789 140.10938 C 239.6836 140.10938 258.57423 143.10938 258.57423 146.8125 " fill="#ffffff"/>
<path transform="matrix(.019935348,0,0,-.019985849,144.7112,229.85584)" stroke-width="50" stroke-linecap="round" stroke-linejoin="round" fill="none" stroke="#0f1d2d" d="M 2585.7423 2783.875 C 2585.7423 2746.8438 2396.836 2716.8048 2163.789 2716.8048 C 1930.7422 2716.8048 1741.8359 2746.8438 1741.8359 2783.875 C 1741.8359 2820.9063 1930.7422 2850.9063 2163.789 2850.9063 C 2396.836 2850.9063 2585.7423 2820.9063 2585.7423 2783.875 Z "/>
<path transform="matrix(.19935346,0,0,.1998585,144.7112,144.876)" d="M 258.57423 146.57422 L 258.57423 328.34376 C 258.57423 328.5039 258.57423 328.67579 258.5625 328.82423 C 258.28907 333.71485 253.875 337.59376 248.46875 337.59376 L 184.29297 337.59376 C 178.88282 337.59376 174.47266 333.71485 174.19922 328.82423 C 174.1875 328.67579 174.1875 328.5039 174.1875 328.34376 L 174.1875 146.57422 C 174.1875 150.78516 193.07422 153.51563 216.3789 153.51563 C 239.6836 153.51563 258.57423 150.78516 258.57423 146.57422 " fill="#ffffff"/>
<path transform="matrix(.019935348,0,0,-.019985849,144.7112,229.85584)" stroke-width="50" stroke-linecap="round" stroke-linejoin="round" fill="none" stroke="#0f1d2d" d="M 2585.7423 2786.2579 L 2585.7423 968.5625 C 2585.7423 966.96096 2585.7423 965.2422 2585.625 963.7578 C 2582.8907 914.85159 2538.75 876.0625 2484.6876 876.0625 L 1842.9297 876.0625 C 1788.8281 876.0625 1744.7266 914.85159 1741.9922 963.7578 C 1741.875 965.2422 1741.875 966.96096 1741.875 968.5625 L 1741.875 2786.2579 C 1741.875 2744.1485 1930.7422 2716.8438 2163.789 2716.8438 C 2396.836 2716.8438 2585.7423 2744.1485 2585.7423 2786.2579 Z "/>
<path transform="matrix(.19935346,0,0,.1998585,144.7112,144.876)" d="M 247.66016 163.64844 L 247.66016 318.46485 C 247.66016 318.60157 247.66016 318.7461 247.65235 318.875 C 247.45313 323.03907 244.17969 326.34376 240.16797 326.34376 L 192.58985 326.34376 C 188.58203 326.34376 185.3086 323.03907 185.10547 318.875 C 185.09766 318.7461 185.09766 318.60157 185.09766 318.46485 L 185.09766 163.64844 C 185.09766 163.64844 210.6211 168.89063 247.66016 163.64844 " fill="#7dcc4f"/>
<path transform="matrix(.19935346,0,0,.1998585,144.7112,144.876)" d="M 225.55469 165.73047 C 226.1914 165.69922 227.32032 198.99219 227.34766 201.8789 C 227.55469 223.98438 225.74219 246.04688 223.83985 268.0586 C 222.48047 283.79689 220.49219 301.6875 209.07813 313.69923 C 204.24219 318.78517 198.47266 322.92189 192.30469 326.32814 C 192.39844 326.33204 192.49219 326.34376 192.58985 326.34376 L 240.16797 326.34376 C 244.17969 326.34376 247.45313 323.03907 247.65235 318.875 C 247.66016 318.7461 247.66016 318.60157 247.66016 318.46485 L 247.66016 163.64844 C 239.71485 164.77344 232.30078 165.41407 225.55469 165.73047 " fill="#69ab42"/>
<path transform="matrix(.019935348,0,0,-.019985849,144.7112,229.85584)" stroke-width="50" stroke-linecap="round" stroke-linejoin="round" fill="none" stroke="#ffffff" d="M 1923.0469 2304.1876 L 1923.0469 1746.6875 "/>
<path transform="matrix(.19935346,0,0,.1998585,144.7112,144.876)" d="M 237 291.61329 C 237 295.10939 234.16407 297.9453 230.66407 297.9453 C 227.16797 297.9453 224.33203 295.10939 224.33203 291.61329 C 224.33203 288.11329 227.16797 285.27735 230.66407 285.27735 C 234.16407 285.27735 237 288.11329 237 291.61329 " fill="#ffffff"/>
<path transform="matrix(.019935348,0,0,-.019985849,144.7112,229.85584)" stroke-width="40" stroke-linecap="round" stroke-linejoin="round" fill="none" stroke="#0f1d2d" d="M 2370 1335.8672 C 2370 1300.9063 2341.6407 1272.5469 2306.6407 1272.5469 C 2271.6798 1272.5469 2243.3204 1300.9063 2243.3204 1335.8672 C 2243.3204 1370.8672 2271.6798 1399.2266 2306.6407 1399.2266 C 2341.6407 1399.2266 2370 1370.8672 2370 1335.8672 Z "/>
<path transform="matrix(.19935346,0,0,.1998585,144.7112,144.876)" d="M 222.83203 307.86329 C 222.83203 310.16407 220.96875 312.02735 218.66407 312.02735 C 216.36328 312.02735 214.5 310.16407 214.5 307.86329 C 214.5 305.5625 216.36328 303.6953 218.66407 303.6953 C 220.96875 303.6953 222.83203 305.5625 222.83203 307.86329 " fill="#ffffff"/>
<path transform="matrix(.019935348,0,0,-.019985849,144.7112,229.85584)" stroke-width="40" stroke-linecap="round" stroke-linejoin="round" fill="none" stroke="#0f1d2d" d="M 2228.3204 1173.3672 C 2228.3204 1150.3594 2209.6876 1131.7266 2186.6407 1131.7266 C 2163.6329 1131.7266 2145 1150.3594 2145 1173.3672 C 2145 1196.375 2163.6329 1215.0469 2186.6407 1215.0469 C 2209.6876 1215.0469 2228.3204 1196.375 2228.3204 1173.3672 Z "/>
<path transform="matrix(.19935346,0,0,.1998585,144.7112,144.876)" d="M 237.16407 309.36329 C 237.16407 311.01954 235.82422 312.36329 234.16407 312.36329 C 232.50782 312.36329 231.16407 311.01954 231.16407 309.36329 C 231.16407 307.70314 232.50782 306.36329 234.16407 306.36329 C 235.82422 306.36329 237.16407 307.70314 237.16407 309.36329 " fill="#ffffff"/>
<path transform="matrix(.019935348,0,0,-.019985849,144.7112,229.85584)" stroke-width="40" stroke-linecap="round" stroke-linejoin="round" fill="none" stroke="#0f1d2d" d="M 2371.6407 1158.3672 C 2371.6407 1141.8047 2358.2423 1128.3672 2341.6407 1128.3672 C 2325.0782 1128.3672 2311.6407 1141.8047 2311.6407 1158.3672 C 2311.6407 1174.9688 2325.0782 1188.3672 2341.6407 1188.3672 C 2358.2423 1188.3672 2371.6407 1174.9688 2371.6407 1158.3672 Z "/>
</g>
</g>
</svg>
