<?xml version="1.0" standalone="no"?>
<!DOCTYPE svg PUBLIC "-//W3C//DTD SVG 20010904//EN"
 "http://www.w3.org/TR/2001/REC-SVG-20010904/DTD/svg10.dtd">
<svg version="1.0" xmlns="http://www.w3.org/2000/svg"
 width="1080.000000pt" height="1920.000000pt" viewBox="0 0 1080.000000 1920.000000"
 preserveAspectRatio="xMidYMid meet">

<g transform="translate(0.000000,1920.000000) scale(0.100000,-0.100000)"
fill="#000000" stroke="none">
<path d="M6235 16757 c-113 -54 -222 -191 -349 -442 -82 -162 -121 -274 -146
-422 -38 -223 -22 -313 80 -426 136 -152 287 -137 435 43 50 61 161 278 194
380 48 149 63 301 37 364 -17 40 -68 79 -99 74 -21 -3 -22 -7 -19 -74 9 -184
-97 -506 -213 -648 -25 -31 -45 -60 -45 -64 0 -15 -121 -72 -152 -72 -38 0
-75 37 -84 85 -31 169 83 594 233 870 59 108 136 211 176 235 39 24 41 24 62
3 25 -24 13 -90 -31 -180 -29 -57 -54 -90 -112 -144 -79 -72 -82 -83 -26 -95
42 -8 113 42 190 135 148 177 154 287 20 366 -63 37 -93 39 -151 12z m-320
-469 c-36 -73 -78 -169 -94 -213 -17 -44 -30 -75 -31 -68 -1 29 72 210 124
307 32 58 59 106 61 106 2 0 -25 -60 -60 -132z m-128 -320 c-3 -8 -6 -5 -6 6
-1 11 2 17 5 13 3 -3 4 -12 1 -19z m-10 -40 c-3 -8 -6 -5 -6 6 -1 11 2 17 5
13 3 -3 4 -12 1 -19z m-10 -40 c-3 -8 -6 -5 -6 6 -1 11 2 17 5 13 3 -3 4 -12
1 -19z"/>
<path d="M5057 16613 c-7 -13 -144 -432 -167 -511 -22 -78 -38 -92 -99 -92
-15 0 -64 -9 -110 -21 -45 -11 -84 -19 -86 -17 -11 12 145 521 166 543 5 5 9
21 9 37 0 33 -45 61 -92 56 -27 -3 -32 -9 -53 -68 -35 -96 -109 -327 -151
-474 l-37 -128 -44 -19 c-51 -22 -55 -46 -10 -67 19 -9 26 -19 23 -30 -10 -34
-77 -354 -82 -396 -6 -38 -3 -47 26 -80 27 -30 39 -36 64 -34 27 3 32 8 38 38
18 85 62 313 78 399 20 113 29 122 137 146 43 9 97 22 121 30 31 10 42 11 42
2 0 -7 -21 -84 -45 -172 -117 -416 -128 -482 -86 -516 32 -26 77 -25 92 3 12
22 69 226 115 413 14 55 41 148 60 207 39 119 47 129 129 149 49 12 75 25 75
38 0 4 -32 5 -71 3 -84 -5 -84 -26 -2 183 31 77 62 163 69 190 8 28 19 62 25
76 21 51 -39 119 -105 119 -14 0 -27 -3 -29 -7z m-476 -543 c-16 -47 -30 -79
-30 -72 -1 19 52 177 56 166 2 -5 -10 -48 -26 -94z m230 -641 c-6 -16 -10 -18
-10 -7 -1 22 12 55 16 42 2 -6 -1 -22 -6 -35z"/>
<path d="M5534 16362 c-126 -45 -254 -167 -254 -243 0 -44 21 -36 80 32 60 69
131 119 168 119 23 0 24 -3 19 -37 -6 -36 -49 -111 -180 -316 -38 -60 -75
-123 -82 -142 -8 -18 -39 -67 -69 -109 -68 -94 -102 -166 -110 -232 -5 -43 -3
-55 15 -77 18 -23 28 -27 76 -27 67 0 281 43 367 73 74 27 84 49 30 67 -47 16
-120 7 -225 -26 -44 -14 -83 -23 -86 -20 -11 10 79 181 208 399 220 368 259
467 211 527 -25 31 -100 36 -168 12z m-162 -649 c-16 -21 -34 -47 -40 -58 -6
-11 -12 -15 -12 -9 0 12 67 104 76 104 3 0 -7 -17 -24 -37z"/>
<path d="M4002 15098 c-17 -17 -17 -1479 0 -1496 8 -8 67 -12 200 -12 l188 0
10 26 c6 14 10 140 10 285 l0 259 208 0 c172 0 211 3 230 16 21 15 22 21 22
179 0 152 -1 165 -19 175 -12 6 -104 10 -230 10 l-211 0 0 100 0 100 238 0
c172 0 241 3 250 12 8 8 12 61 12 173 0 112 -4 165 -12 173 -17 17 -879 17
-896 0z m818 -167 l0 -100 -240 -3 c-201 -3 -242 -5 -250 -18 -5 -8 -10 -88
-10 -177 0 -150 1 -163 19 -173 12 -6 104 -10 230 -10 l211 0 0 -100 0 -100
-218 0 c-156 0 -221 -3 -230 -12 -9 -9 -12 -87 -12 -290 l0 -278 -120 0 -120
0 0 680 0 680 370 0 370 0 0 -99z"/>
<path d="M5132 15098 c-17 -17 -17 -1479 0 -1496 8 -8 66 -12 193 -12 127 0
185 4 193 12 17 17 17 1479 0 1496 -17 17 -369 17 -386 0z m313 -748 l0 -675
-120 0 -120 0 -3 665 c-1 366 0 671 3 678 3 9 34 12 122 10 l118 -3 0 -675z"/>
<path d="M5752 15098 c-15 -15 -17 -310 -2 -339 10 -18 23 -19 170 -19 l160 0
0 -556 c0 -364 4 -562 10 -575 10 -18 23 -19 200 -19 177 0 190 1 200 19 6 13
10 211 10 575 l0 556 158 0 c110 0 162 4 170 12 8 8 12 61 12 173 0 112 -4
165 -12 173 -17 17 -1059 17 -1076 0z m998 -168 l0 -100 -148 0 c-117 0 -152
-3 -170 -16 l-22 -15 0 -565 0 -564 -120 0 -120 0 0 564 0 565 -22 15 c-18 13
-53 16 -170 16 l-148 0 0 100 0 100 460 0 460 0 0 -100z"/>
<path d="M3900 12932 c0 -4 20 -42 45 -84 40 -68 45 -84 45 -138 l0 -60 40 0
40 0 0 56 c0 49 6 66 50 141 28 47 50 87 50 89 0 2 -17 4 -39 4 -33 0 -40 -4
-50 -28 -6 -15 -20 -40 -30 -56 l-19 -29 -32 57 c-29 51 -35 56 -66 56 -19 0
-34 -3 -34 -8z"/>
<path d="M4309 12917 c-120 -80 -67 -269 76 -269 54 0 87 19 123 72 60 89 -13
220 -123 220 -27 0 -54 -8 -76 -23z m106 -47 c35 -13 56 -64 43 -102 -31 -87
-148 -65 -148 27 0 34 14 56 45 73 25 14 28 14 60 2z"/>
<path d="M4610 12820 c0 -115 1 -122 25 -145 30 -31 104 -37 151 -13 35 17 44
52 44 168 l0 110 -29 0 -29 0 -4 -105 c-3 -112 -9 -125 -55 -125 -34 0 -43 29
-43 134 l0 96 -30 0 -30 0 0 -120z"/>
<path d="M4910 12796 l0 -146 35 0 35 0 0 55 c0 30 3 55 8 55 4 0 23 -25 42
-55 32 -51 38 -55 73 -55 l38 0 -40 59 -40 58 24 23 c35 33 34 88 -1 121 -21
20 -38 24 -100 27 l-74 4 0 -146z m128 60 c5 -22 -16 -46 -39 -46 -15 0 -19 8
-19 39 0 38 1 39 28 32 15 -4 28 -15 30 -25z"/>
<path d="M5280 12795 l0 -145 35 0 35 0 0 55 0 55 40 0 40 0 0 -55 c0 -54 0
-55 30 -55 l30 0 0 145 0 145 -30 0 c-30 0 -30 -1 -30 -55 l0 -55 -40 0 -40 0
0 55 0 55 -35 0 -35 0 0 -145z"/>
<path d="M5570 12795 l0 -145 85 0 85 0 0 30 c0 29 -1 30 -50 30 -49 0 -50 1
-50 30 0 29 2 30 45 30 41 0 45 2 45 25 0 23 -4 25 -45 25 -43 0 -45 1 -45 30
0 29 1 30 50 30 49 0 50 1 50 30 l0 30 -85 0 -85 0 0 -145z"/>
<path d="M5927 12933 c-4 -7 -88 -210 -108 -260 -8 -21 -6 -23 27 -23 30 0 37
4 45 30 10 28 14 30 65 30 52 0 56 -2 65 -30 9 -25 16 -30 45 -30 19 0 34 2
34 5 0 3 -25 69 -57 145 -53 133 -58 140 -84 140 -15 0 -30 -3 -32 -7z m51
-135 c11 -27 10 -28 -18 -28 -17 0 -30 2 -30 4 0 1 5 18 11 35 12 34 18 33 37
-11z"/>
<path d="M6170 12795 l0 -145 85 0 85 0 0 30 c0 29 -1 30 -50 30 l-50 0 0 115
0 115 -35 0 -35 0 0 -145z"/>
<path d="M6410 12910 c0 -28 3 -30 35 -30 l35 0 0 -115 0 -115 30 0 30 0 0
115 0 115 35 0 c32 0 35 2 35 30 l0 30 -100 0 -100 0 0 -30z"/>
<path d="M6690 12795 l0 -145 30 0 c30 0 30 1 30 55 l0 55 40 0 40 0 0 -55 0
-55 35 0 36 0 -3 143 -3 142 -32 3 -33 3 0 -55 0 -56 -40 0 -40 0 0 55 c0 54
0 55 -30 55 l-30 0 0 -145z"/>
<path d="M4670 12315 l0 -147 81 4 c70 3 83 6 100 27 23 28 25 84 4 101 -11 9
-12 17 -5 30 16 30 12 76 -9 101 -16 20 -30 24 -95 27 l-76 4 0 -147z m101 85
c26 -15 24 -49 -3 -59 -30 -11 -38 -6 -38 28 0 41 9 48 41 31z m17 -122 c28
-28 8 -58 -39 -58 -15 0 -19 7 -19 35 0 30 3 35 23 35 13 0 28 -5 35 -12z"/>
<path d="M4950 12356 c0 -58 4 -116 10 -130 13 -36 52 -58 104 -58 92 0 116
39 116 192 l0 100 -35 0 -35 0 0 -103 c0 -108 -7 -127 -45 -127 -38 0 -45 19
-45 127 l0 103 -35 0 -35 0 0 -104z"/>
<path d="M5260 12315 l0 -145 55 0 c106 0 165 53 165 148 0 87 -66 142 -170
142 l-50 0 0 -145z m124 64 c21 -17 26 -29 26 -65 0 -51 -25 -84 -65 -84 -25
0 -25 1 -25 85 0 76 2 85 19 85 10 0 30 -9 45 -21z"/>
<path d="M5560 12315 l0 -145 58 0 c103 0 172 58 172 145 0 87 -69 145 -172
145 l-58 0 0 -145z m134 64 c21 -16 26 -29 26 -64 0 -35 -5 -48 -26 -64 -15
-12 -35 -21 -45 -21 -17 0 -19 9 -19 85 0 76 2 85 19 85 10 0 30 -9 45 -21z"/>
<path d="M5870 12452 c0 -4 20 -42 45 -84 40 -68 45 -84 45 -138 l0 -60 40 0
40 0 0 56 c0 49 6 66 50 141 28 47 50 87 50 89 0 2 -17 4 -39 4 -33 0 -40 -4
-50 -28 -6 -15 -20 -40 -30 -56 l-19 -29 -32 57 c-29 51 -35 56 -66 56 -19 0
-34 -3 -34 -8z"/>
</g>
</svg>
