<?xml version="1.0" encoding="UTF-8" standalone="no"?>
<!DOCTYPE svg PUBLIC "-//W3C//DTD SVG 1.1//EN" "http://www.w3.org/Graphics/SVG/1.1/DTD/svg11.dtd">
<svg xmlns="http://www.w3.org/2000/svg" xmlns:xlink="http://www.w3.org/1999/xlink" version="1.1" width="375pt" height="375pt" viewBox="0 0 375 375">
<g enable-background="new">
<clipPath id="cp0">
<path transform="matrix(.24,0,0,.24,0,0)" d="M 0 0 L 1562.5 0 L 1562.5 1593.75 L 0 1593.75 Z " fill-rule="evenodd"/>
</clipPath>
<g clip-path="url(#cp0)">
<path transform="matrix(.75,0,0,.75,0,0)" d="M 0 0 L 500 0 L 500 510 L 0 510 Z " fill="#ffffff"/>
<path transform="matrix(.75,0,0,.75,0,0)" d="M 0 0 L 500 0 L 500 500 L 0 500 Z " fill="#fbeffe"/>
</g>
<clipPath id="cp1">
<path transform="matrix(.24,0,0,.24,0,0)" d="M 0 0 L 1562.5 0 L 1562.5 1562.5 L 0 1562.5 Z " fill-rule="evenodd"/>
</clipPath>
<g clip-path="url(#cp1)">
<path transform="matrix(.75,0,0,.75,0,0)" d="M 0 0 L 500 0 L 500 500 L 0 500 Z " fill="#ffffff"/>
</g>
<clipPath id="cp2">
<path transform="matrix(.24,0,0,.24,0,0)" d="M 0 0 L 1562.5 0 L 1562.5 1562.5 L 0 1562.5 Z " fill-rule="evenodd"/>
</clipPath>
<g clip-path="url(#cp2)">
<path transform="matrix(.75,0,0,.75,0,0)" d="M 0 0 L 500 0 L 500 500 L 0 500 Z " fill="#fbeffe"/>
</g>
<clipPath id="cp3">
<path transform="matrix(.24,0,0,.24,0,0)" d="M 669.36288 648.33877 L 894.36288 648.33877 L 894.36288 913.96377 L 669.36288 913.96377 Z " fill-rule="evenodd"/>
</clipPath>
<g clip-path="url(#cp3)">
<path transform="matrix(.6789299,0,0,.67460319,153.66663,153.7124)" d="M 74.244 59.756 L 74.244 38.482 C 74.243007 27.270998 66.593 17.816998 56.239007 15.055998 C 57.175008 13.776998 57.735006 12.205997 57.735006 10.502998 C 57.735006 6.2379987 54.265005 2.7679983 50.000005 2.7679983 C 45.735006 2.7679983 42.265005 6.237998 42.265005 10.502998 C 42.265005 12.205998 42.825006 13.775998 43.760004 15.055998 C 33.406003 17.815999 25.754002 27.270998 25.754002 38.482 L 25.754002 59.755998 L 19.310002 77.085 C 19.081002 77.699 19.168002 78.386 19.542002 78.923999 C 19.916003 79.462 20.529002 79.782 21.184002 79.782 L 78.813 79.782 C 79.468 79.782 80.082 79.462 80.456 78.923999 C 80.829 78.385997 80.916 77.699 80.688 77.085 L 74.244 59.756 Z M 50 6.768 C 52.06 6.768 53.735 8.443 53.735 10.503 C 53.735 12.563001 52.06 14.238 50 14.238 C 47.94 14.238 46.265 12.563 46.265 10.503 C 46.265 8.443001 47.94 6.768 50 6.768 Z M 24.063 75.782 L 29.63 60.811998 C 29.713 60.587999 29.755 60.352998 29.755 60.114999 L 29.755 38.482 C 29.755 27.318999 38.836999 18.237999 49.999 18.237999 C 61.161 18.237999 70.243 27.32 70.244 38.482 L 70.244 60.114999 C 70.244 60.352998 70.286 60.588998 70.369 60.811998 L 75.936008 75.782 L 24.063 75.782 Z " fill="#737373"/>
<path transform="matrix(.6789299,0,0,.67460319,153.66663,153.7124)" d="M 62.348 80.884 C 61.244 80.884 60.348 81.78001 60.348 82.884 C 60.348 88.590007 55.704999 93.233 49.999 93.233 C 44.293004 93.233 39.651 88.59 39.651 82.884 C 39.651 81.78001 38.755 80.884 37.651 80.884 C 36.547 80.884 35.651 81.78001 35.651 82.884 C 35.651 90.796009 42.088 97.233 49.999 97.233 C 57.911 97.233 64.348 90.796009 64.348 82.884 C 64.348 81.779 63.452 80.884 62.348 80.884 Z " fill="#ffbd1f"/>
<path transform="matrix(.6789299,0,0,.67460319,153.66663,153.7124)" d="M 21.602 55.846 L 21.602 37.346 C 21.602 36.242 20.706 35.346 19.602 35.346 C 18.498 35.346 17.602 36.242 17.602 37.346 L 17.602 55.846 C 17.602 56.95 18.498 57.846 19.602 57.846 C 20.706 57.846 21.602 56.95 21.602 55.846 Z " fill="#14c4ed"/>
<path transform="matrix(.6789299,0,0,.67460319,153.66663,153.7124)" d="M 12.25 35.346 C 11.146 35.346 10.25 36.242 10.25 37.346 L 10.25 55.846 C 10.25 56.95 11.146 57.846 12.25 57.846 C 13.354 57.846 14.25 56.95 14.25 55.846 L 14.25 37.346 C 14.25 36.242 13.354 35.346 12.25 35.346 Z " fill="#14c4ed"/>
<path transform="matrix(.6789299,0,0,.67460319,153.66663,153.7124)" d="M 87.75 35.346 C 86.646 35.346 85.75 36.242 85.75 37.346 L 85.75 55.846 C 85.75 56.95 86.646 57.846 87.75 57.846 C 88.854 57.846 89.75 56.95 89.75 55.846 L 89.75 37.346 C 89.75 36.242 88.854 35.346 87.75 35.346 Z " fill="#14c4ed"/>
<path transform="matrix(.6789299,0,0,.67460319,153.66663,153.7124)" d="M 80.398 35.346 C 79.29401 35.346 78.398 36.242 78.398 37.346 L 78.398 55.846 C 78.398 56.95 79.29401 57.846 80.398 57.846 C 81.502 57.846 82.398 56.95 82.398 55.846 L 82.398 37.346 C 82.398 36.242 81.503 35.346 80.398 35.346 Z " fill="#14c4ed"/>
</g>
</g>
</svg>
