<?xml version="1.0" encoding="UTF-8" standalone="no"?>
<!DOCTYPE svg PUBLIC "-//W3C//DTD SVG 1.1//EN" "http://www.w3.org/Graphics/SVG/1.1/DTD/svg11.dtd">
<svg xmlns="http://www.w3.org/2000/svg" xmlns:xlink="http://www.w3.org/1999/xlink" version="1.1" width="375pt" height="375pt" viewBox="0 0 375 375">
<g enable-background="new">
<clipPath id="cp0">
<path transform="matrix(.24,0,0,.24,0,0)" d="M 0 0 L 1562.5 0 L 1562.5 1593.75 L 0 1593.75 Z " fill-rule="evenodd"/>
</clipPath>
<g clip-path="url(#cp0)">
<path transform="matrix(.75,0,0,.75,0,0)" d="M 0 0 L 500 0 L 500 510 L 0 510 Z " fill="#ffffff"/>
<path transform="matrix(.75,0,0,.75,0,0)" d="M 0 0 L 500 0 L 500 500 L 0 500 Z " fill="#fbeffe"/>
</g>
<clipPath id="cp1">
<path transform="matrix(.24,0,0,.24,0,0)" d="M 0 0 L 1562.5 0 L 1562.5 1562.5 L 0 1562.5 Z " fill-rule="evenodd"/>
</clipPath>
<g clip-path="url(#cp1)">
<path transform="matrix(.75,0,0,.75,0,0)" d="M 0 0 L 500 0 L 500 500 L 0 500 Z " fill="#ffffff"/>
</g>
<clipPath id="cp2">
<path transform="matrix(.24,0,0,.24,0,0)" d="M 0 0 L 1562.5 0 L 1562.5 1562.5 L 0 1562.5 Z " fill-rule="evenodd"/>
</clipPath>
<g clip-path="url(#cp2)">
<path transform="matrix(.75,0,0,.75,0,0)" d="M 0 0 L 500 0 L 500 500 L 0 500 Z " fill="#fbeffe"/>
</g>
<clipPath id="cp3">
<path transform="matrix(.24,0,0,.24,0,0)" d="M 863.88528 704.08517 L 957.4228 704.08517 L 957.4228 806.4593 L 863.88528 806.4593 Z " fill-rule="evenodd"/>
</clipPath>
<g clip-path="url(#cp3)">
<path transform="matrix(.16037245,0,0,.16058685,149.11725,147.78298)" d="M 502.76564 273.05079 C 501.66017 273.51173 501.1172 274.1211 500.66407 274.8164 C 500.1953 275.4961 499.6875 276.14454 499.14454 276.73829 C 498.0625 277.9375 496.79689 278.90235 495.4922 279.48048 C 494.17579 280.0625 492.80079 280.1211 491.46876 279.79298 C 490.1328 279.46095 489.09376 278.71095 488.1875 277.55079 C 487.28517 276.3711 486.54298 274.8672 485.53907 273.27345 C 484.59376 271.70704 483 269.8828 480.77735 269.08204 C 479.6914 268.6875 478.57423 268.54689 477.5 268.53126 C 476.35548 268.60548 475.03907 268.85548 473.92189 269.66017 C 472.84376 270.45704 472.1953 271.4375 471.6875 272.28517 C 471.20704 273.14454 470.82423 273.92189 470.4453 274.64845 C 469.71095 276.11329 468.89845 277.3203 467.82814 278.34376 C 466.78517 279.34767 465.44923 280.33595 464.36329 280.55079 C 463.3047 280.78517 462.21876 280.4336 460.96876 279.4453 C 459.75 278.4922 458.53907 277.21485 457.14064 276.02735 C 455.76954 274.82423 454.11329 273.65626 452.1328 273.1211 C 450.15235 272.51564 447.7422 272.85939 446.08595 274 C 444.3828 275.08595 443.14064 276.55079 442.14845 278.09376 C 441.64845 278.86329 441.23439 279.67579 440.83985 280.48439 C 440.46095 281.30079 440.22267 282.21485 440.57423 283.30079 C 441.58204 282.78517 442.11329 282.14064 442.5586 281.42579 C 443.01564 280.72657 443.48829 280.04298 444.0078 279.41017 C 445.02735 278.14454 446.16017 276.98048 447.4297 276.25 C 448.70704 275.51564 450.03126 275.35548 451.3711 275.76954 C 452.7461 276.1875 453.98829 277.09376 455.17189 278.21095 C 456.35548 279.33985 457.45314 280.67189 458.88673 281.95704 C 459.625 282.58595 460.4453 283.23048 461.52345 283.65626 C 462.5547 284.15235 463.84767 284.22267 465.0039 284.07814 C 465.5703 283.97657 466.09376 283.78907 466.64064 283.6289 C 467.11329 283.40626 467.58204 283.16798 468.05079 282.9297 C 468.90626 282.40235 469.71485 281.85939 470.46095 281.1836 C 471.95314 279.85939 473.14454 278.17189 474.01173 276.5625 C 474.45314 275.76173 474.83204 274.98048 475.21095 274.33204 C 475.58595 273.6953 475.95704 273.23048 476.28517 272.9922 C 476.59376 272.76564 477.03907 272.6875 477.61329 272.6289 C 477.9297 272.66407 478.26954 272.6289 478.57423 272.67579 C 478.85939 272.7539 479.1953 272.73829 479.45314 272.86329 C 480.53907 273.21095 481.48048 274.04298 482.3789 275.3789 C 483.28907 276.67579 484.14845 278.27345 485.41798 279.8086 C 486.6797 281.35157 488.65235 282.67579 490.72657 283.0547 C 492.77345 283.51173 495.02735 283.14845 496.8164 282.17579 C 498.63673 281.22657 499.98439 279.77345 501.05079 278.26173 C 501.58985 277.5039 502.0625 276.71485 502.48439 275.90626 C 502.91407 275.10939 503.1914 274.1875 502.76564 273.05079 Z M 378.7422 170.07813 C 378.90626 171.23047 378.85548 172.52735 378.375 173.5664 C 377.96876 174.64844 377.33204 175.48047 376.71876 176.23047 C 375.45314 177.6836 374.14064 178.80078 373.02735 180 C 371.9297 181.19922 371.04298 182.46094 370.64454 183.83985 C 370.2539 185.1836 370.4336 186.50782 371.1914 187.77344 C 371.9375 189.03125 373.1172 190.14844 374.40235 191.14453 C 375.04298 191.65625 375.73439 192.11719 376.4414 192.5625 C 377.16017 192.9961 377.8125 193.51953 378.34767 194.51953 C 377.26173 194.89063 376.34376 194.66407 375.52735 194.29688 C 374.71095 193.91407 373.89064 193.51563 373.11329 193.02344 C 371.5586 192.0586 370.07423 190.83594 368.96095 189.15235 C 367.79298 187.51172 367.41017 185.10938 367.98829 183.11719 C 368.4922 181.13282 369.63673 179.45703 370.8164 178.0664 C 371.98048 176.64844 373.2422 175.42188 374.17579 174.1836 C 375.14064 172.92188 375.47657 171.82813 375.22657 170.77344 C 374.9961 169.6914 373.98829 168.3711 372.96876 167.34375 C 371.92579 166.29297 370.70704 165.4961 369.23439 164.78516 C 368.4961 164.41797 367.71485 164.04688 366.85157 163.57813 C 365.9922 163.08594 365.0039 162.45313 364.1914 161.38672 C 363.3672 160.28125 363.09376 158.96875 363.0078 157.82422 C 363.0039 156.75 363.125 155.63282 363.5039 154.54297 C 364.26954 152.30469 366.0703 150.6836 367.6211 149.71485 C 369.19923 148.6875 370.6914 147.92188 371.85939 147 C 373.0039 146.07813 373.73439 145.02344 374.05079 143.6836 C 374.35548 142.34766 374.27735 140.97266 373.67579 139.66407 C 373.07423 138.36719 372.08985 137.11719 370.875 136.0586 C 370.27345 135.52344 369.6172 135.02344 368.9336 134.5664 C 368.23048 134.125 367.60939 133.59375 367.1328 132.49219 C 368.26173 132.05078 369.1914 132.3125 369.9922 132.73047 C 370.8086 133.14063 371.60157 133.60157 372.3711 134.1289 C 373.89845 135.17188 375.3711 136.4961 376.34767 138.30078 C 377.34767 140.07422 377.75 142.32422 377.3203 144.3789 C 376.97267 146.45313 375.6797 148.44922 374.15626 149.73438 C 372.64454 151.03125 371.0586 151.91016 369.77735 152.84375 C 368.45314 153.76172 367.63673 154.71485 367.3047 155.8086 C 367.1836 156.0664 367.20704 156.39844 367.1328 156.6875 C 367.08985 156.99219 367.1328 157.33203 367.09767 157.64844 C 367.16407 158.22266 367.25 158.66407 367.48439 158.97266 C 367.73048 159.29688 368.19923 159.66016 368.83985 160.02735 C 369.4961 160.39453 370.28126 160.76172 371.08985 161.1875 C 372.71095 162.03125 374.41798 163.19532 375.76564 164.66797 C 376.45314 165.40235 377.01173 166.20313 377.54689 167.05078 C 377.79298 167.51563 378.03907 167.98047 378.26954 168.45313 C 378.4375 168.99219 378.63673 169.51563 378.7422 170.07813 " fill="#f1e510"/>
</g>
<clipPath id="cp4">
<path transform="matrix(.24,0,0,.24,0,0)" d="M 604.7977 612.8183 L 957.9227 612.8183 L 957.9227 950.3183 L 604.7977 950.3183 Z " fill-rule="evenodd"/>
</clipPath>
<g clip-path="url(#cp4)">
<path transform="matrix(.16037245,0,0,.16058685,149.11725,147.78298)" d="M 392.22267 334.91798 L 393.6328 332.22657 C 395.16798 334.85548 396.1914 337.26954 396.1914 337.26954 C 396.1914 337.26954 394.71095 336.29689 392.22267 334.91798 Z M 414.46095 349.02735 C 412.1289 344.36329 416.01564 342.8086 415.14454 334.0586 C 415.14454 334.0586 410.72657 321.98829 402.3164 315.66017 L 379.3672 296.71485 L 361.97657 313.01564 L 330.10939 322.7422 L 317.46095 354.9375 L 364.28126 370.0625 C 364.38673 370.1914 364.46485 370.3086 364.5078 370.41017 C 364.8086 371.16407 363.15235 373.02345 361.01173 375.02345 C 360.26954 374.60548 359.5703 374.21485 358.92189 373.85939 C 356.0586 372.30079 352.60939 372.34767 349.80079 374 C 339.02735 380.35157 311.42579 395.83595 304.375 392.17189 C 292.1875 385.83595 301.17189 286.72267 295.14064 269.29689 C 292.35157 261.2422 288.7539 253.60157 284.66017 246.42969 L 255.42578 185.32422 L 270.51564 126.32422 L 270.51564 57.8125 L 267.57423 55.48828 C 267.60939 54.816408 267.6289 54.367189 267.63673 54.222658 L 267.6836 53.21875 L 266.90626 52.578126 C 266.23048 52.027345 264.92579 50.585939 263.41798 48.910158 C 255.42188 40.054689 236.69532 19.308594 212.03516 19.308594 C 206.90235 19.308594 201.72657 20.214844 196.65625 21.996094 C 187.29688 25.28125 180.44532 31.574219 175.39453 39.335939 L 172.89453 39.410158 L 117.67969 111.96094 L 34.976564 196.29688 L 5.976562 237.8125 L 8.511719 253.73047 C 8.503906 253.77344 8.5 253.83985 8.4921879 253.88672 C 2.714844 271.61329 -.371094 292.89454 .988281 315.98439 C 2.503906 341.76954 5.851562 409.10157 26.027344 453.51173 C 25.109375 469.27345 23.3125 484.72657 20.335938 499.33204 L 255.46485 500 C 255.46485 500 257.60939 486.76173 260.66407 467.17189 C 269.98829 473.26173 284.58595 480.46485 299 478.09767 C 358.2461 468.35939 390.7461 424.0586 390.35939 406.17579 C 390.26954 402.14064 388.3711 398.15235 385.48829 394.39845 C 391.5078 388.44923 396.79689 382.98829 398.1328 380.90626 C 401.6328 375.46485 410.96485 367.10548 409.21485 363.21876 C 407.46485 359.32814 416.79689 353.6914 414.46095 349.02735 " fill="#ffffff"/>
<path transform="matrix(.16037245,0,0,.16058685,149.11725,147.78298)" d="M 447.76173 228.94532 L 402.3164 315.66017 C 401.30079 314.89845 400.23439 314.21485 399.10548 313.64845 C 388.60939 308.40235 370.53126 307.52735 371.11329 313.35939 C 371.69923 319.1914 383.9453 324.14454 388.02735 325.89454 C 390.0664 326.76954 392.10157 329.60548 393.6328 332.22657 L 392.22267 334.91798 C 383.2578 329.95314 361.15235 319.66798 347.59376 330.17189 C 342.90235 333.8086 337.27345 356.23439 343.8828 358.5664 C 350.14845 360.77735 362.375 367.6953 364.28126 370.0625 L 256.13673 374.83985 C 252.99219 374.97657 250.16016 372.96485 249.25782 369.95314 C 248.7461 368.25 248.91407 366.41798 249.72657 364.83595 L 324.28517 220.00782 C 325.46876 217.71094 327.83985 216.27344 330.42579 216.28516 L 439.4375 216.83594 C 441.1289 216.84375 442.7578 217.47657 444.01173 218.60938 L 446.28517 220.66407 C 448.60548 222.76563 449.21485 226.17188 447.76173 228.94532 " fill="#65cbc3"/>
<path transform="matrix(.16037245,0,0,.16058685,149.11725,147.78298)" d="M 259.92579 340.1914 C 260.09767 340.375 260.3828 340.4453 261.27735 340.26954 C 261.83595 339.61329 261.78126 339.20704 261.6172 338.91017 C 261.46876 338.57814 261.30079 338.34767 261.13673 338.0625 C 260.79689 337.51564 260.4375 337 260.04298 336.53907 C 259.27735 335.5664 258.40235 334.7578 257.5547 333.90626 C 255.83594 332.23829 254.11328 330.60157 252.16797 329.25 C 250.25782 327.85939 248.19922 326.6797 246.1875 325.44923 C 245.1836 324.83595 244.23438 324.14064 243.2461 323.5039 C 242.7539 323.1836 242.23828 322.89454 241.71094 322.625 L 240.89844 322.2461 C 240.6289 322.1211 240.27735 322.10548 239.61719 322.54298 C 239.4336 323.3164 239.5625 323.63673 239.76953 323.84767 L 240.39063 324.48439 C 240.8164 324.89064 241.25 325.28517 241.71094 325.64454 C 242.6211 326.3711 243.57032 327.05079 244.44922 327.8203 C 246.20703 329.36329 247.91016 330.97267 249.6914 332.45314 C 251.4375 333.97657 253.39453 335.23439 255.22266 336.6211 L 257.9336 338.69923 C 258.39454 339.03907 258.84767 339.36329 259.27735 339.69923 C 259.4922 339.86329 259.76173 340.02735 259.92579 340.1914 Z M 218.73828 412.0547 L 216.91797 413.76954 L 214.98828 415.375 L 211.16016 418.60939 L 207.34766 421.85548 C 206.05078 422.90626 204.70703 423.90626 203.39844 424.9414 C 200.7461 426.97657 198.16016 429.08985 195.46094 431.0625 L 187.28907 436.8789 C 184.58985 438.85157 181.73047 440.60157 178.96094 442.47267 C 173.41407 446.20704 167.71485 449.72657 162.04688 453.28517 L 153.46875 458.51173 C 150.60547 460.2539 147.67578 461.8828 144.78516 463.57423 C 141.90625 465.28907 138.97266 466.91017 136.04297 468.54298 C 133.1211 470.1836 130.1836 471.8086 127.21484 473.3672 C 121.296878 476.52345 115.29297 479.51954 109.25781 482.44923 L 100.21875 486.875 L 95.6875 489.0625 C 94.171878 489.78517 92.71875 490.6289 91.45703 491.96095 C 93.29297 491.98439 94.91797 491.48439 96.47656 490.85157 L 101.14453 488.91407 C 104.25391 487.61329 107.33594 486.2461 110.38281 484.8164 C 113.453128 483.4297 116.47266 481.9336 119.50391 480.46095 C 122.546878 479.01173 125.55078 477.4922 128.5625 475.98048 C 140.64063 470 152.53907 463.63673 164.14844 456.73829 C 175.69532 449.7422 186.90235 442.16407 197.61328 433.91017 C 200.29688 431.85939 202.8711 429.66017 205.5039 427.53907 C 206.8086 426.46095 208.14453 425.42579 209.40625 424.30079 L 213.14063 420.85939 L 216.85938 417.41017 L 218.70313 415.66407 L 220.4375 413.8086 L 223.90235 410.10157 C 225.07032 408.8789 226.13282 407.54689 226.70313 405.78517 C 224.90625 406.40626 223.59375 407.45704 222.39063 408.6172 L 218.73828 412.0547 Z M 305.77735 395.1836 C 303.72657 395.03907 301.8828 395.20704 299.95314 395.44923 C 298.04689 395.71485 296.15235 396.11329 294.30079 396.72267 C 292.4453 397.33204 290.65235 398.1914 289.01564 399.3164 C 288.23829 399.95314 287.4453 400.54689 286.8125 401.33204 C 286.48048 401.70704 286.13673 402.0586 285.8789 402.48829 C 285.625 402.91798 285.47267 403.44923 285.78126 404.23048 C 286.67189 404.3125 287.10157 404.14454 287.4336 403.8711 C 287.71876 403.5664 288.08595 403.33985 288.42579 403.09767 C 289.07814 402.58204 289.84376 402.21095 290.54689 401.78517 C 292.04689 401.04298 293.6328 400.48829 295.26954 400.04689 C 296.91798 399.63673 298.6289 399.41017 300.34376 399.28907 C 300.7578 399.26173 301.17579 399.2422 301.59767 399.22657 C 301.03126 400.08985 300.4414 400.9297 299.9375 401.83204 C 298.71876 403.89064 297.63673 406.02735 296.6797 408.21485 C 295.7539 410.41798 294.85157 412.6289 294.14845 414.91407 C 293.8125 416.0664 293.5078 417.22657 293.35157 418.42579 C 293.2461 419.01564 293.21485 419.625 293.16407 420.22657 C 293.10548 420.8203 293.16017 421.47657 293.9453 422.11329 C 294.80079 421.59767 295.01954 421.10157 295.14064 420.54689 L 295.6289 418.9375 C 295.96876 417.8711 296.3203 416.8047 296.6953 415.7461 C 297.42579 413.6211 298.34376 411.55079 299.45314 409.58595 C 300.5625 407.6211 301.80079 405.73439 303.11329 403.90235 C 303.76173 402.98048 304.45314 402.08985 305.1211 401.1836 L 307.21095 398.52735 L 307.2461 398.48439 C 307.4922 398.17579 307.64845 397.78517 307.6797 397.35939 C 307.7539 396.23439 306.90626 395.2578 305.77735 395.1836 Z M 269.8672 316.5586 C 271.16798 315.98829 272.30079 315.10939 273.47267 314.30079 C 274.05079 313.8828 274.64845 313.5 275.19923 313.03126 C 275.47657 312.80079 275.73829 312.54298 275.9961 312.27735 L 276.375 311.8672 C 276.51564 311.7539 276.57423 311.4922 276.32814 310.6836 C 275.77345 310.04298 275.52345 309.95314 275.35157 310.0078 L 274.80079 310.10939 C 274.4414 310.1914 274.08204 310.27345 273.73829 310.38673 C 273.04689 310.59767 272.40626 310.89845 271.7461 311.16798 C 270.4336 311.72657 269.08985 312.21876 267.91017 313.01173 C 266.70314 313.7578 265.60939 314.70314 264.46095 315.55079 C 263.88673 315.98048 263.26564 316.3164 262.67189 316.71095 C 262.375 316.90626 262.09767 317.1328 261.82814 317.3789 L 261.7422 317.47267 C 261.42189 317.33985 261.10548 317.20314 260.77735 317.09767 C 258.9961 316.4453 257.13673 316.02345 255.3086 315.5664 C 254.39063 315.33985 253.51172 315.01564 252.60547 314.76173 C 252.15625 314.6328 251.6914 314.54298 251.21875 314.47267 L 250.5039 314.39845 C 250.26172 314.375 249.98047 314.47657 249.52735 315.10939 C 249.52344 315.8828 249.67969 316.1328 249.88282 316.2578 L 250.48828 316.6289 C 250.89844 316.85939 251.3125 317.0703 251.73828 317.25 C 252.58985 317.60939 253.46094 317.91407 254.29297 318.32423 C 255.95703 319.14845 257.5703 320.07423 259.23439 320.83985 C 260.8711 321.65235 262.6172 322.1875 264.29689 322.85548 C 265.14064 323.1836 265.9414 323.5625 266.77735 323.8828 C 267.1875 324.04689 267.58985 324.20704 268.01564 324.35548 C 268.2422 324.42189 268.41798 324.51173 268.625 324.59376 C 268.8164 324.6953 269.08985 324.67189 269.82814 324.1914 C 270.20704 323.42579 270.11329 323.11329 269.9375 322.92579 C 269.77345 322.72657 269.60939 322.4961 269.4336 322.32423 C 269.07814 321.97267 268.71485 321.59767 268.32423 321.28907 C 267.5547 320.66407 266.71876 320.16017 265.89454 319.66017 C 265.40235 319.3672 264.90626 319.07814 264.41017 318.79689 C 264.89454 318.5625 265.3711 318.3164 265.8789 318.125 C 267.21095 317.60548 268.59376 317.1836 269.8672 316.5586 Z M 246.96875 367.53517 C 246.17578 367.51173 245.38282 367.51173 244.59375 367.51564 C 243.82032 367.5078 242.91407 367.58985 242.47657 367.4961 C 241.95313 367.40235 241.55469 367.21485 241.19922 366.90626 C 240.47657 366.3086 239.95703 365.08204 239.6914 363.7578 C 239.41797 362.4453 239.32422 360.91017 239.39844 359.60157 C 239.4375 358.9297 239.1211 358.29298 238.59766 357.90235 C 238.5586 357.78517 238.51563 357.71485 238.46485 357.6797 L 238.11719 357.4375 C 237.88282 357.26954 237.64453 357.1172 237.39844 357.0039 C 236.90235 356.73829 236.38282 356.52735 235.91407 356.16407 C 234.97266 355.47657 234.13282 354.6172 233.19532 353.90626 C 232.28516 353.14845 231.19532 352.64064 230.15625 352.02345 C 229.63282 351.72657 229.13282 351.39064 228.57032 351.1289 C 228.29297 350.9922 228 350.8789 227.69922 350.76564 L 227.24219 350.60939 C 227.10547 350.53517 226.86328 350.59376 226.20313 351.1172 C 225.77735 351.84376 225.76563 352.09767 225.86719 352.22657 L 226.11328 352.66407 C 226.28907 352.9453 226.46875 353.22267 226.66797 353.47657 C 227.0664 353.98439 227.53125 354.41407 227.98438 354.86329 C 228.89844 355.75 229.8086 356.67189 230.95313 357.28126 C 231.8125 357.79298 232.76953 358.15626 233.74219 358.4961 C 233.23438 358.82814 232.78907 359.20704 232.40235 359.60157 C 231.80078 360.19923 231.33985 360.83595 230.91407 361.48829 C 230.70703 361.8164 230.53125 362.14454 230.34375 362.47657 C 230.19922 362.72657 230.10547 362.90235 229.9336 363.14845 C 228.60938 365.04298 226.73438 367.01173 224.91407 368.86329 C 223.07422 370.73829 221.11719 372.52735 219.09766 374.2422 C 218.09375 375.10157 217.08985 375.96876 216.1211 376.8789 C 215.90235 377.07814 215.6914 377.28907 215.47657 377.4922 C 214.45313 376.67579 213.4414 375.85157 212.4414 375.0078 C 206.16407 369.6875 200.27344 363.8711 195.54688 357.1875 C 193.75 354.63673 192.14844 351.95314 190.75 349.17189 C 191.29297 348.98439 191.8086 348.75 192.30078 348.47657 C 193.38672 347.8711 194.46875 347.2539 195.53516 346.61329 C 197.69532 345.3711 199.76172 343.98048 201.80469 342.5625 C 205.8789 339.69923 209.78907 336.59767 213.55078 333.3125 C 217.32813 330.04689 220.92969 326.54689 224.26172 322.76954 L 228.97657 317.02345 C 230.52344 315.16798 232.1289 313.3672 233.83594 311.6953 C 235.4961 309.97267 237.28125 308.40626 239.125 306.9297 C 241.02344 305.54689 242.9375 304.17189 245.01172 303.09767 C 249.11719 300.84376 253.69922 299.61329 258.5 298.60157 L 272.94923 295.4961 C 275.36329 295.01564 277.76564 294.44923 280.17579 293.9414 L 283.79689 293.16798 C 285.0039 292.91798 286.1836 292.51954 287.27345 291.52735 C 285.92579 290.92579 284.67189 290.9336 283.44923 291.08985 L 279.76954 291.5547 C 277.3164 291.8828 274.85939 292.17579 272.41798 292.57423 C 269.97267 292.96095 267.52735 293.33204 265.08985 293.77735 L 257.80079 295.125 C 255.36328 295.57423 252.8789 296.0664 250.41016 296.76173 C 247.9336 297.4453 245.5039 298.40235 243.17578 299.5547 C 238.48047 301.84376 234.47266 305.23048 230.9375 308.85939 C 229.17969 310.69923 227.55469 312.64064 226.0039 314.625 L 221.50782 320.46876 C 218.46875 324.23439 215.1289 327.78126 211.58594 331.1289 C 208.01953 334.45704 204.20703 337.52735 200.27344 340.4336 C 198.30469 341.88673 196.32032 343.3164 194.32032 344.73048 C 193.32032 345.4414 192.30469 346.125 191.28516 346.8047 C 190.86328 347.08595 190.45703 347.39454 190.07032 347.73829 C 189.88282 347.34767 189.6875 346.96095 189.51172 346.5664 L 188.35157 343.73829 L 187.33203 340.84767 L 186.51172 337.88673 C 186.4336 337.4922 186.33594 337.10157 186.1875 336.71876 L 186.34766 336.6797 C 186.98047 336.52345 187.64844 336.39064 188.3086 336.27345 C 189.63672 336.04689 190.97266 335.84767 192.3164 335.76564 C 193.65625 335.67189 195 335.6836 196.32032 335.83204 C 197.64844 335.98439 198.91016 336.09767 200.48047 335.9922 C 199.5039 334.73829 198.03516 334.15235 196.60157 333.89454 C 195.15625 333.6328 193.69922 333.52345 192.2461 333.52345 C 190.79688 333.52735 189.35157 333.60548 187.91797 333.8086 C 187.19922 333.91407 186.49219 334.03126 185.76563 334.1875 L 183.71094 334.6328 C 178.21485 335.89064 172.82422 337.46095 167.44532 339.08985 C 164.75782 339.90235 162.0664 340.71876 159.41016 341.63673 L 155.41407 342.97657 L 151.45313 344.4297 L 147.5 345.91017 L 143.59766 347.51173 L 139.6875 349.10939 L 135.83594 350.84376 C 125.609378 355.5586 115.68359 361.01173 106.453128 367.51954 L 104.69922 368.6953 L 103.00781 369.97267 L 99.625 372.51564 C 98.5 373.3672 97.36328 374.20314 96.26172 375.08595 L 93.078128 377.8789 C 92.01953 378.8125 90.94922 379.73048 89.91016 380.6836 L 88.35156 382.10939 L 86.88672 383.64064 L 83.96875 386.70314 C 82.984378 387.70704 82.10547 388.82423 81.70703 390.375 C 83.31641 389.98048 84.44141 389.15235 85.46094 388.21095 L 88.55078 385.4297 L 90.09375 384.04298 L 91.734378 382.76564 C 92.83594 381.92189 93.91016 381.05079 94.99219 380.1875 L 98.234378 377.60157 L 101.62109 375.19923 L 105 372.79689 L 106.69141 371.59376 L 108.44531 370.48439 L 115.47656 366.07423 L 122.72266 362.01173 C 127.625 359.4453 132.49219 356.80079 137.54297 354.51173 L 141.28516 352.70314 L 145.08985 351.01954 L 148.89844 349.33985 L 152.7539 347.76954 L 156.60547 346.1875 L 160.5 344.71485 C 163.08985 343.70314 165.71485 342.79689 168.34375 341.88673 C 173.60938 340.125 178.94532 338.53126 184.32032 337.1836 L 184.3789 337.16798 C 184.36328 337.53907 184.38672 337.91017 184.42969 338.26954 L 184.97266 341.45314 L 185.73047 344.60157 C 186.04297 345.6328 186.36719 346.66407 186.73438 347.6797 C 188.19922 351.7461 190.2461 355.57814 192.59375 359.1875 C 197.30469 366.40235 203.24219 372.73048 209.85157 378.1328 C 213.17969 380.8086 216.63282 383.3125 220.24219 385.58204 C 222.03907 386.71876 223.86719 387.8125 225.73047 388.85157 C 226.65625 389.3711 227.59766 389.875 228.55469 390.3672 C 228.9961 390.60157 229.6211 390.89845 230.1211 391.08204 C 230.64453 391.28907 231.16797 391.47267 231.70313 391.64064 C 232.78125 391.97267 233.8789 392.26954 235.08985 392.3828 C 235.69532 392.4414 236.33594 392.44923 237.02344 392.33985 C 237.70313 392.23048 238.48047 391.96876 239.14453 391.39064 C 239.8125 390.8125 240.1914 389.98439 240.32422 389.26564 C 240.46485 388.53517 240.4336 387.8789 240.35938 387.26564 C 240.1914 386.03907 239.83594 384.96095 239.41797 383.9297 C 238.57813 381.8711 237.53125 379.9961 236.38282 378.1914 C 235.80469 377.29689 235.20313 376.41798 234.58594 375.5547 C 233.98047 374.6836 233.24219 373.89845 232.03516 373.4453 C 231.99219 374.73829 232.41016 375.70314 232.92578 376.60548 C 233.4414 377.51173 233.91797 378.4297 234.40235 379.34376 C 235.34375 381.17579 236.28516 383.0078 236.95703 384.8672 C 237.28125 385.79689 237.5664 386.73048 237.66797 387.58985 C 237.77735 388.46876 237.59766 389.14064 237.33594 389.30079 C 237.08203 389.53907 236.26172 389.66798 235.39063 389.53907 C 234.51563 389.4297 233.57422 389.17189 232.66407 388.83204 C 232.20703 388.66017 231.7539 388.47267 231.3086 388.26954 C 230.83203 388.0625 230.52344 387.89064 230.04688 387.60939 C 229.16016 387.09767 228.27735 386.5664 227.40235 386.01564 C 225.65235 384.91798 223.9336 383.76564 222.24219 382.57423 C 220.57032 381.39845 218.92188 380.1875 217.30469 378.9375 C 217.40625 378.8672 217.51172 378.8047 217.61328 378.73048 C 218.71875 377.97267 219.77735 377.15626 220.82032 376.3164 L 227.07813 371.23048 C 229.15625 369.46485 231.21875 367.79689 233.10938 365.4375 C 233.33594 365.14845 233.58985 364.7539 233.79297 364.4375 C 233.95313 364.19923 234.10157 363.94923 234.26563 363.72267 C 234.60157 363.28126 234.92578 362.83595 235.28907 362.5078 C 235.38672 362.41407 235.48438 362.34376 235.58203 362.26173 C 235.69532 363.0586 235.85938 363.85157 236.08594 364.66798 C 236.59766 366.35548 237.34766 368.23829 239.16407 369.58985 C 240.05078 370.2578 241.20313 370.60939 242.2539 370.61329 C 243.39063 370.60548 244.0586 370.42579 244.85157 370.30079 C 245.63282 370.15626 246.41016 370.0078 247.1875 369.83985 C 247.95313 369.60939 248.76953 369.82814 249.4336 368.46485 C 248.52735 367.2539 247.76953 367.6172 246.96875 367.53517 Z M 254.78907 351.39454 C 254.4414 350.9375 254.08203 350.5078 253.69922 350.10939 C 252.94532 349.28907 252.11328 348.58595 251.30078 347.85548 C 249.66797 346.41407 248.05469 344.95704 246.23047 343.78907 C 244.4414 342.57814 242.51953 341.5586 240.64453 340.48048 C 239.71094 339.9414 238.83203 339.3164 237.91407 338.75 C 237.45703 338.46485 236.98047 338.21095 236.48828 337.97657 L 235.73438 337.64845 C 235.48047 337.53907 235.15235 337.53907 234.51172 337.9961 C 234.3164 338.7578 234.42969 339.0625 234.6211 339.26173 L 235.1914 339.84767 C 235.58203 340.22267 235.98438 340.58595 236.40625 340.91017 C 237.2539 341.57423 238.13672 342.1836 238.95313 342.8828 C 240.58594 344.28126 242.17188 345.75 243.85157 347.0664 C 245.5039 348.42579 247.35547 349.51173 249.1211 350.6914 C 250.01563 351.26954 250.88282 351.88673 251.77735 352.4375 L 253.13672 353.23829 C 253.35938 353.36329 253.61719 353.4922 253.8164 353.6211 C 254.01172 353.76564 254.30078 353.79298 255.1211 353.4375 C 255.5664 352.6953 255.48047 352.33985 255.30078 352.10157 C 255.1289 351.83595 254.96094 351.6328 254.78907 351.39454 Z M 384.8203 413.46876 C 384.2461 413.33595 383.67189 413.23048 383.10939 413.07814 C 381.98829 412.7422 380.85157 412.4961 379.7578 412.14845 C 378.66017 411.79689 377.5625 411.46095 376.5078 411.03126 C 375.4297 410.66407 374.40626 410.17579 373.39064 409.6875 C 373.16017 409.57423 372.9414 409.4453 372.71485 409.32423 C 373.3164 408.82814 373.89064 408.3086 374.47657 407.79298 C 375.92189 406.48829 377.42579 405.2422 378.67579 403.75 C 379.96485 402.29298 381.10548 400.69923 382.3047 399.15626 C 382.90626 398.38673 383.57814 397.6914 384.21095 396.94923 C 384.52735 396.58204 384.8164 396.1836 385.08985 395.77345 L 385.47657 395.13673 C 385.60548 394.92579 385.63673 394.6211 385.27345 393.9336 C 384.57423 393.60157 384.26954 393.64454 384.0625 393.78126 L 383.4414 394.19923 C 383.04689 394.48829 382.66017 394.79689 382.3047 395.1289 C 381.59376 395.78907 380.92579 396.4922 380.1836 397.125 C 378.6953 398.39064 377.14845 399.59767 375.7539 400.94923 C 374.3164 402.26173 373.1328 403.8164 371.89454 405.3203 C 371.28126 406.07814 370.64454 406.8125 370.07814 407.6172 C 370.0625 407.64064 370.04689 407.67189 370.02735 407.6953 C 367.4336 405.90626 365.17579 403.69923 363.2539 401.23439 C 360.59767 397.70314 358.66017 393.52735 357.59376 389.04298 C 357.08204 386.80079 356.8164 384.4922 356.69923 382.1797 C 356.65235 381.01954 356.58204 379.85939 356.5586 378.6914 L 356.52345 376.9414 C 356.52345 376.35548 356.39454 375.77345 355.7578 375.07423 C 354.9336 375.5547 354.6797 376.16017 354.5703 376.76173 C 354.46095 377.3672 354.36329 377.97267 354.28517 378.57814 C 354.1328 379.79689 354.0703 381.02345 354.0664 382.25 C 354.09767 384.70314 354.3164 387.16017 354.71095 389.60157 C 355.4414 394.47267 357.01954 399.41017 359.98439 403.6211 C 362.92579 407.84767 367.26173 411 371.89454 412.9336 C 373.0625 413.41017 374.23048 413.8711 375.4336 414.20314 C 376.6172 414.6172 377.85157 414.8125 379.0625 415.0664 C 380.26954 415.33204 381.51173 415.38673 382.73048 415.52345 C 383.33985 415.5664 383.95704 415.5586 384.5703 415.57814 C 385.17579 415.60939 385.8086 415.4922 386.47267 414.73048 C 385.94923 413.82423 385.39454 413.57423 384.8203 413.46876 Z M 396.46485 350.07814 C 395.5664 349.30079 394.6289 348.58204 393.66798 347.88673 C 391.7539 346.5 389.73048 345.26954 387.67189 344.10548 C 383.5547 341.78517 379.25 339.71095 374.6914 338.3672 C 370.16017 336.95314 365.47267 336.07814 360.76954 335.6328 C 358.4336 335.3086 356.07814 335.17189 353.72267 335.05079 C 352.55079 334.95314 351.3672 335.04298 350.1914 335.1211 L 348.4297 335.27345 C 347.84376 335.32814 347.2578 335.51564 346.70314 336.25 C 347.3047 336.98829 347.8789 337.1797 348.44923 337.23439 L 350.16407 337.40235 C 351.3047 337.4922 352.4414 337.53517 353.5703 337.6836 L 356.97267 338.0039 C 358.10157 338.10548 359.21876 338.3672 360.33985 338.53907 C 362.58595 338.91017 364.76954 339.5586 366.96485 340.1172 C 368.0547 340.41798 369.125 340.8047 370.20704 341.13673 L 371.82814 341.6289 L 373.42189 342.21485 C 377.6797 343.71876 381.9336 345.28126 386.01564 347.26954 C 388.0625 348.25 390.0547 349.33985 392.0586 350.41798 L 395.03517 352.09767 C 395.53517 352.3711 396.02735 352.66017 396.51564 352.95704 C 397 353.26564 397.53907 353.45704 398.52345 353.1797 C 398.60939 352.16798 398.2422 351.64064 397.79298 351.26173 C 397.35548 350.85939 396.91407 350.46095 396.46485 350.07814 Z M 383.4375 266.77345 C 386.83985 263.8086 387.28126 259.3164 384.41798 256.7422 C 381.5547 254.16407 376.47657 254.48438 373.07423 257.44923 C 369.67189 260.41407 369.23048 264.90626 372.09376 267.48439 C 374.95314 270.0586 380.03517 269.7422 383.4375 266.77345 Z M 393.96485 362.52345 C 393.46485 362.25 392.96485 361.95314 392.46095 361.6953 C 391.45314 361.20314 390.4375 360.70704 389.40235 360.28907 L 383.1875 357.79689 C 379.0703 356.08595 374.96876 354.32423 370.79689 352.78126 C 366.63673 351.1875 362.35939 349.9375 358.10939 348.6211 C 355.98048 347.96876 353.85939 347.30079 351.70314 346.72657 C 350.63673 346.41798 349.55079 346.15626 348.46485 345.89845 L 346.82814 345.52735 C 346.28907 345.38673 345.70314 345.3828 344.90626 345.9961 C 345.16407 346.96876 345.6328 347.3203 346.14454 347.53907 L 347.66407 348.2422 C 348.6836 348.6953 349.70314 349.15235 350.73439 349.5664 C 352.78517 350.4297 354.8711 351.19923 356.9453 352 C 361.10157 353.57423 365.22267 355.2461 369.45314 356.59767 C 373.66798 358 377.9414 359.22657 382.17579 360.5586 C 384.28517 361.25 386.3711 361.9922 388.45314 362.7461 C 389.4961 363.11329 390.53126 363.47267 391.58985 363.80079 L 393.14064 364.30079 C 393.72657 364.48439 394.05079 364.48048 395.02735 364.1875 C 395.03517 363.35157 394.42189 362.7461 393.96485 362.52345 Z M 365.0078 373.53517 C 365.51954 374.4414 366.01954 375.40235 366.84767 376.09376 C 367.63673 376.8203 368.61329 377.35548 369.58204 377.8711 C 370.07814 378.1172 370.4961 378.45704 371.01564 378.6836 C 371.27345 378.79689 371.52735 378.89845 371.82423 378.9375 L 372.26954 378.96876 C 372.41798 378.98048 372.625 378.85939 373.01173 378.23439 C 373.17189 377.5039 373.15626 377.27735 373.07814 377.1836 L 372.85939 376.90626 C 372.70314 376.75 372.5547 376.5586 372.3828 376.4297 C 372.04298 376.17579 371.6875 375.89845 371.39454 375.5586 C 370.8086 374.8711 370.375 374.01954 369.8047 373.32423 C 369.28126 372.58595 368.53517 372.01954 367.85157 371.3672 C 367.5 371.04689 367.1875 370.6953 366.79689 370.39454 C 366.60548 370.2422 366.39454 370.10157 366.17579 369.96485 L 365.83595 369.76564 C 365.7461 369.6836 365.51564 369.69923 364.7461 370.02345 C 364.10548 370.5625 364.0078 370.78517 364.04689 370.91017 L 364.10939 371.32814 C 364.16407 371.60157 364.22657 371.8711 364.3203 372.1172 C 364.4922 372.625 364.7539 373.07423 365.0078 373.53517 Z M 434.6875 222.86719 L 426.1289 222.65625 L 409.0078 222.27735 L 374.76954 221.79688 L 340.52735 221.38672 C 337.21485 221.24219 333.64845 222.61328 331.33204 225.14844 C 330.7422 225.77735 330.23439 226.47266 329.78517 227.21094 L 329.46485 227.77735 L 329.21876 228.2539 L 328.73048 229.20703 L 326.77735 233.01563 L 318.97267 248.25782 L 288.1797 309.4453 L 272.67579 339.98439 C 270.10157 345.08204 267.52735 350.17579 265.02345 355.3086 L 261.2422 362.98829 C 259.98829 365.5547 258.84376 368.17579 258.19923 371.05079 C 260.16407 368.85157 261.625 366.39454 262.98048 363.8828 L 267.01954 356.33204 C 269.72657 351.3086 272.3672 346.2461 275.0078 341.1875 L 290.78907 310.79689 L 322.5625 250.1211 L 330.40235 234.89844 L 332.35939 231.09375 L 332.84767 230.14063 L 333.09376 229.66407 L 333.30079 229.30469 C 333.59767 228.82422 333.9297 228.35938 334.3203 227.94922 C 335.8828 226.26953 338.08595 225.32422 340.48439 225.39063 L 374.73439 225.3711 L 408.98829 225.27735 L 426.11329 225.09766 L 434.67579 224.98438 C 437.53126 224.95313 440.3828 224.80469 443.2422 223.97657 C 440.39454 223.11328 437.54298 222.9336 434.6875 222.86719 Z M 231.45703 139.05469 C 230.84375 139.07032 230.23828 139.0664 229.63672 139.0664 C 228.42969 139.07813 227.24219 139.0664 226.0625 138.97657 C 223.69922 138.77344 221.46875 138.1211 219.3125 137.41407 C 218.76563 137.24219 218.21875 137.07422 217.71094 136.80469 C 217.19532 136.5625 216.64063 136.375 216.13672 136.09766 C 215.13672 135.51563 214.09375 134.96094 213.19922 134.17969 C 212.21485 133.5 211.51953 132.50782 210.70313 131.63282 C 210.27344 131.21094 209.96094 130.6875 209.54688 130.23047 L 208.92578 129.53907 C 208.71875 129.30469 208.39453 129.14453 207.57813 129.23047 C 207.09766 129.85157 207.11328 130.23047 207.23828 130.53516 L 207.6289 131.46094 C 207.92969 132.05469 208.16016 132.69922 208.59766 133.21485 C 209.41016 134.28516 210.20703 135.3711 211.1875 136.32422 C 212.97657 138.375 215.26563 140.11328 217.84766 141.1914 C 220.41797 142.33594 223.26172 142.63282 225.97657 142.55078 C 227.33594 142.48047 228.6914 142.38672 230.00782 142.0664 C 230.66407 141.92188 231.3125 141.71485 231.94532 141.48047 C 232.26172 141.36719 232.57422 141.22266 232.88672 141.09375 C 233.19922 140.97657 233.4961 140.70313 233.55078 139.8125 C 233 139.10547 232.6836 138.9961 232.3789 139.03125 C 232.0664 139.03907 231.76953 139.0625 231.45703 139.05469 Z M 96.07422 172.32813 C 101.03125 158.33203 123.78125 144.6211 123.78125 144.6211 C 131.22657 142.38672 138.30469 141.3164 145.03907 141.16016 C 152.9961 128.6289 159.69922 116.89844 161.70313 110.29297 C 164.07813 110.390628 166.86328 110.02734 170.10157 109.12891 C 164.6211 102.85156 164.14453 87.83203 171.1211 82.01953 C 175.27735 78.55469 179.27735 80.72656 182.41016 84.125 C 186.85938 88.96094 188.57422 95.703128 186.90625 101.75781 C 187.49219 101.42969 188.07813 101.10547 188.67969 100.75391 C 195.9375 96.546878 196.23047 82.078128 195.42969 71.8125 C 218.80469 78.55859 247.1289 71.03516 265.33985 59.679689 C 264.65235 71.49609 262.78907 99.10547 259.75 112.01953 C 255.82813 128.70313 248.96485 150.77735 220.23438 160.69922 C 212.14453 163.48828 208.23828 162.0625 208.23828 162.0625 C 208.23828 162.0625 207.96094 163.67578 207.58985 166.29688 C 218.8125 175.17578 228.3086 184.35157 236.41016 190.02344 C 239.02735 191.85547 241.6289 194.40235 244.17969 197.51563 C 256.92579 208.96875 272.8672 225.75 284.66017 246.42969 C 288.7422 242.34375 292.0547 237.9414 294.45704 233.21094 C 306.55079 209.39063 293.08985 182.58985 286.2461 168.90625 C 279.40626 155.22657 303.34767 142.22657 296.5078 122.390628 C 289.66798 102.55078 275.8164 89.96094 277.35548 87.50391 C 280.77345 82.02734 293.77345 70.39844 280.77345 49.191408 C 280.40235 48.585939 280.01954 47.992189 279.6328 47.398439 C 280.3086 46.515626 280.9336 45.628908 281.46095 44.746095 C 307.98439 .132812 248.4414 -4.3632814 208.17578 2.691406 C 188.78516 -.07812501 165.71485 3.585938 150.45703 29.011719 C 119.67578 80.31641 150.80078 83.39844 101.890628 96.39453 C 70.09375 104.84375 65.28516 144.66407 57.08203 154.19922 C 44.652345 168.64453 -23.863282 207.50782 8.703125 252.96485 C 21.410157 200.17969 80.77734 179.85938 96.07422 172.32813 Z M 233.84766 128.76953 C 234.16016 128.67578 234.47266 128.57422 234.78125 128.46485 C 235.39453 128.22266 236.0039 127.94922 236.58203 127.59766 C 237.74219 126.90234 238.80469 125.93359 239.66407 124.66016 C 240.0664 124.02344 240.4414 123.23828 240.6211 122.50781 C 240.83203 121.74609 240.92969 121.140628 241.02735 120.48047 C 241.21094 119.21094 241.2461 117.96484 241.24219 116.73828 C 241.23438 114.27344 240.94532 111.84375 240.71094 109.421878 C 240.59375 108.21094 240.57422 107 240.48438 105.78906 C 240.4375 105.1875 240.35547 104.58203 240.25 103.98047 L 240.0586 103.078128 C 239.9961 102.77734 239.79688 102.48047 239.04688 102.21094 C 238.32032 102.53906 238.14453 102.84766 238.10157 103.14844 L 237.97266 104.05469 C 237.90625 104.65625 237.85938 105.26172 237.84766 105.859378 C 237.82032 107.0625 237.85547 108.265628 237.77344 109.46484 C 237.60547 111.86719 237.33594 114.26172 237.19532 116.62109 C 237.13282 117.80469 237.04688 118.96875 237.02344 120.10156 C 236.98047 120.640628 236.98047 121.23828 236.91407 121.65625 C 236.8711 122.11328 236.7461 122.44141 236.57422 122.859378 C 236.1914 123.66016 235.51953 124.43359 234.75782 125.1875 C 234.375 125.56641 233.96875 125.94531 233.54297 126.32031 C 233.32813 126.51172 233.11328 126.69531 232.89063 126.875 C 232.65235 127.03516 232.4961 127.32031 232.54688 128.20313 C 233.15625 128.85938 233.54297 128.8789 233.84766 128.76953 Z M 210.96094 222.6875 C 211.05078 222.58203 211.13282 222.47266 211.22266 222.36719 L 215.90235 217.07813 C 217.44922 215.29688 219.01953 213.52735 220.67578 211.80078 C 221.51563 210.9414 222.36719 210.09375 223.30078 209.26563 C 223.76953 208.85547 224.25782 208.45313 224.82032 208.05469 C 225.09766 207.85157 225.39844 207.65625 225.76953 207.45703 C 226.16797 207.27735 226.50782 207.0039 227.49219 206.95313 C 227.83594 206.9414 228.14063 207 228.42969 207.10157 C 226.6289 204.89063 225.46485 202.36328 224.09766 199.9375 L 219.13282 190.92969 L 214.13282 181.95703 C 213.26953 180.42188 212.39453 178.89063 211.51563 177.36328 C 211.39844 178.85938 211.32422 180.36719 211.26953 181.875 C 211.16016 185.03125 211.17969 188.20703 211.26953 191.38672 C 211.35547 194.5625 211.5039 197.7461 211.71094 200.92578 L 212.0586 205.6875 L 212.26172 208.0664 C 212.33985 208.82422 212.41797 209.69532 212.42969 210.5625 C 212.5664 214.67578 212.03125 218.76172 210.96094 222.6875 Z M 172.98047 195.0664 C 173.34375 195.14844 173.69922 195.26563 174.03907 195.4375 C 173.63282 195.13282 173.21485 194.8789 172.80078 194.72266 C 171.64063 194.27735 170.29297 193.70313 169.1875 193.08985 C 164.57813 190.64063 160.35938 187.80078 156.15235 184.91797 C 151.95703 182.02735 147.83594 179.05078 143.76563 176.01172 C 139.6914 172.97266 135.65235 169.89453 131.6914 166.71875 L 125.74609 161.95703 C 123.77734 160.35547 121.88672 158.64844 120.36328 156.49219 C 122.80859 157.48438 124.91016 158.90235 126.94922 160.41016 L 133.05078 164.9375 L 145.3164 173.89844 C 149.42578 176.84766 153.53516 179.79688 157.72266 182.61328 C 161.90235 185.42188 166.14844 188.20703 170.52344 190.46875 C 171.07422 190.75 171.6211 191.0039 172.17188 191.23828 C 172.7539 191.51172 173.17969 191.6211 173.86719 191.89453 C 175.39844 192.46485 176.53125 193.42969 177.52344 194.40235 C 179.47266 196.40625 180.89063 198.64453 182.1875 200.91407 C 184.73828 205.47657 186.69922 210.23438 188.5039 215.03125 C 191.60157 223.48828 194.14844 232.0664 196.36719 240.76953 C 197.60157 239.36719 198.78907 237.875 199.8711 236.35547 C 201.65235 233.83203 203.23047 231.16407 204.52344 228.375 C 207.11328 222.82032 208.6836 216.75 208.54297 210.6914 C 208.53516 210.32422 208.53907 209.9414 208.51563 209.58203 L 208.42188 208.39063 L 208.2461 205.97266 L 207.96485 201.14063 C 207.80469 197.91407 207.69922 194.6875 207.66016 191.45703 C 207.61719 188.22266 207.64844 184.98438 207.8086 181.73438 C 207.97657 178.48438 208.21875 175.22657 208.82422 171.9414 L 208.82813 171.91797 C 208.9961 171.01953 209.85547 170.42578 210.7539 170.59375 C 211.25 170.6836 211.65625 170.99219 211.89063 171.39453 C 213.61719 174.41407 215.21094 177.44532 216.82422 180.48828 C 218.42188 183.53125 220.02344 186.57422 221.54688 189.65625 L 226.10938 198.89844 C 227.47266 201.79688 229.07813 204.57422 229.66016 207.86719 C 229.69532 207.89844 229.72266 207.92578 229.75782 207.95703 C 229.92969 208.15625 230.10157 208.3711 230.25 208.58594 L 230.57422 209.14844 C 230.92578 209.85938 231.17188 210.51172 231.33985 211.14063 C 231.70313 212.39844 231.92969 213.59375 232.10157 214.79297 C 232.45703 217.17969 232.69532 219.51953 232.9414 221.85157 L 233.70313 228.77344 C 233.85547 229.91407 233.98047 231.05469 234.15625 232.17188 C 234.23828 232.73047 234.33203 233.28907 234.44922 233.83203 C 234.58203 234.38282 234.59375 234.91407 234.07422 235.80078 C 233.07422 235.6211 232.65235 235.0625 232.42969 234.4961 C 232.1836 233.92578 231.96094 233.35547 231.7539 232.78125 C 231.35547 231.6289 231.01563 230.47266 230.7539 229.3086 C 230.17969 226.98438 229.80078 224.65235 229.40235 222.33985 C 229 220.03125 228.6211 217.72657 228.16016 215.5 C 227.91407 214.39453 227.67969 213.29297 227.39063 212.30078 C 227.28516 211.9336 227.16797 211.61328 227.05469 211.32032 C 227.04688 211.32813 227.03907 211.32813 227.03516 211.33594 C 226.625 211.59375 226.1875 211.91016 225.75782 212.25 C 224.88672 212.91407 224.01172 213.64844 223.14844 214.39844 C 221.41407 215.90235 219.71485 217.49219 218.03516 219.10157 C 216.375 220.73828 214.77344 222.4336 213.17578 224.13282 C 212.375 224.98047 211.54688 225.8086 210.71094 226.625 L 209.4336 227.83203 C 209.33594 227.92578 209.22657 228.01563 209.11328 228.09766 C 208.83203 228.77344 208.54297 229.44532 208.23047 230.10547 C 206.82032 233.13282 205.11328 236.0039 203.1914 238.71094 C 201.23828 241.42969 199.1914 243.9414 196.65625 246.33985 C 195.85157 247.09766 194.58985 247.0625 193.82813 246.26172 C 193.57813 245.99219 193.41016 245.67578 193.33594 245.33985 L 193.32422 245.28516 C 191.09375 235.5039 188.4336 225.71875 185.1289 216.25 C 183.46485 211.52344 181.64063 206.83594 179.32813 202.49219 C 178.16407 200.33594 176.86719 198.23828 175.30078 196.57032 C 174.96485 196.22266 174.61328 195.89844 174.2539 195.60547 C 173.89844 195.95313 173.57032 196.1836 173.25 196.38282 C 172.91797 196.6211 172.60157 196.82813 172.26953 196.96875 C 171.95313 197.16407 171.6211 197.3086 171.29297 197.45703 L 170.35157 198.01953 C 169.1289 198.83203 168.02735 199.86328 167.01953 200.99219 C 165 203.2461 163.3125 205.86328 161.80078 208.57422 C 160.27735 211.28907 158.95313 214.13672 157.76172 217.03907 C 156.57813 219.9336 155.5 222.9375 154.61719 225.875 L 154.60157 225.9336 C 154.29688 226.94922 153.22657 227.52735 152.20703 227.22266 C 152.07813 227.1836 151.94922 227.1289 151.83203 227.0664 L 147.9336 224.91797 C 146.6836 224.13672 145.5 223.27735 144.28125 222.46094 C 143.05078 221.65235 141.96094 220.69922 140.79297 219.82813 C 140.22266 219.375 139.63282 218.94532 139.07813 218.47657 L 137.44922 217.04297 C 133.07032 213.25 128.97657 209.1914 125.07422 204.98047 C 121.15625 200.77735 117.37109 196.47266 113.63672 192.13282 C 111.76172 189.96875 109.95703 187.7461 108.1875 185.4961 C 107.30078 184.3711 106.44922 183.21875 105.60547 182.0625 C 104.75 180.91407 103.86719 179.78125 103.74219 178.0664 C 105.36719 178.60938 106.265628 179.69922 107.19922 180.77344 L 110.04297 183.95703 L 115.67969 190.35157 C 119.42969 194.6211 123.35547 198.73438 127.43359 202.66797 C 131.5039 206.60938 135.63672 210.47657 140.00782 214.00782 C 143.7461 217.0586 147.59375 219.98828 151.64453 222.40625 C 152.48438 220.08985 153.40625 217.84375 154.41407 215.60157 C 155.7539 212.6289 157.23438 209.71094 158.9375 206.90235 C 160.67578 204.11328 162.60547 201.39063 165.08203 199.07813 C 166.32032 197.9375 167.67969 196.88282 169.21094 196.0664 L 170.39453 195.51172 C 170.8086 195.36719 171.21875 195.20703 171.64453 195.10547 C 172.08594 195.03907 172.53907 195.03516 172.98047 195.0664 Z M 63.816408 492.5664 L 62.273439 492.3203 L 60.773439 491.91798 L 59.3125 491.39064 C 57.398439 490.58204 55.57422 489.5039 53.867189 488.21876 C 50.429689 485.65626 47.54297 482.3203 44.632814 479.03126 C 41.765626 475.6836 38.98047 472.1914 36.42578 468.51173 C 35.16797 466.66017 34 464.7461 32.86328 462.8164 C 32.296876 461.85157 31.695313 460.89845 31.097657 459.94923 L 30.179688 458.53126 C 29.878907 458.0547 29.460938 457.64454 28.550782 457.45704 C 28.132813 458.28907 28.222657 458.89064 28.433594 459.42189 L 29.082032 461.01173 C 29.539063 462.0625 30.03125 463.09376 30.566407 464.10548 C 31.644532 466.1172 32.785158 468.09767 33.9375 470.07423 C 36.203126 474.05079 38.61328 477.98829 41.515626 481.61329 C 44.398439 485.25 47.82422 488.52735 51.820314 491.14845 C 53.820314 492.4453 55.984376 493.59767 58.36328 494.23829 C 58.964845 494.3711 59.554689 494.54298 60.16797 494.625 C 60.785158 494.6836 61.398439 494.7578 62.01172 494.78517 L 63.859376 494.6914 C 64.46484 494.60157 65.08594 494.35939 65.52734 493.48439 C 64.83984 492.70314 64.33594 492.5586 63.816408 492.5664 Z M 256.52345 92.33203 C 256.64845 92.41016 256.8789 92.36328 257.60548 91.93359 C 258.1211 91.27344 258.14454 91 258.0547 90.859378 L 257.82814 90.38281 C 257.66407 90.07422 257.48439 89.77734 257.27735 89.50781 C 256.875 88.953128 256.375 88.5 255.88282 88.03516 C 254.8789 87.13281 253.78125 86.23828 252.45313 85.78516 C 251.16407 85.265628 249.71875 85.15625 248.35157 85.10547 C 247.66016 85.078128 246.98828 85.00781 246.30469 85.05078 C 245.96485 85.046878 245.625 85.12109 245.29297 85.23047 L 244.80469 85.41797 C 244.64063 85.48047 244.48828 85.6875 244.41016 86.421878 C 244.64453 87.13672 244.79688 87.328128 244.94532 87.37109 L 245.3789 87.51172 L 246.21875 87.68359 C 246.49219 87.734378 246.76953 87.75391 247.04688 87.78516 C 247.3164 87.83984 247.58594 87.921878 247.85157 88.00391 C 248.91016 88.37891 249.85938 88.97266 250.8086 89.484378 C 251.73828 90.03906 252.78907 90.390628 253.78907 90.93359 C 254.28907 91.19922 254.76172 91.50781 255.28516 91.77344 C 255.54297 91.91016 255.82032 92.02734 256.09767 92.15234 L 256.52345 92.33203 Z M 251.66016 98.98828 C 249.22266 98.59766 246.92969 100.26172 246.54297 102.69531 C 246.15235 105.13672 247.8164 107.42578 250.2539 107.8125 C 252.6914 108.203128 254.98047 106.53906 255.36719 104.10547 C 255.75782 101.66406 254.09766 99.375 251.66016 98.98828 Z M 223.1211 80.05469 L 222.4375 79.65234 C 221.97657 79.40234 221.5039 79.16406 221.01563 78.98047 C 220.04688 78.58203 219.03516 78.33984 218.01563 78.09766 C 215.98047 77.64844 213.84766 77.32031 211.71875 77.58203 C 209.58594 77.75781 207.51172 78.50391 205.58203 79.36719 C 205.10157 79.59766 204.61719 79.8125 204.13282 80.015628 C 203.66407 80.265628 203.19922 80.515628 202.74219 80.78516 C 202.51563 80.91406 202.29297 81.0625 202.07422 81.20703 C 201.86719 81.375 201.67578 81.5625 201.48047 81.73828 L 200.91797 82.30469 C 200.73438 82.49219 200.625 82.796878 200.86328 83.51953 C 201.51563 83.97266 201.8164 84 202.03907 83.91016 L 202.71094 83.65625 C 203.13282 83.453128 203.5586 83.27734 203.98828 83.109378 C 204.41407 82.93359 204.82032 82.72266 205.23828 82.53906 C 205.67578 82.39453 206.11328 82.265628 206.55469 82.140628 C 208.35547 81.75 210.17188 81.62891 211.98438 81.62109 C 213.78907 81.640628 215.6211 81.50391 217.48438 81.63281 C 218.41407 81.69531 219.33985 81.82031 220.28516 81.91016 L 221.71485 82.01953 L 222.4414 82.06641 C 222.67578 82.10547 222.94532 82.00391 223.47657 81.3125 C 223.55078 80.44141 223.35157 80.171878 223.1211 80.05469 Z M 223.2539 95.46875 C 223.64063 93.03125 221.98047 90.73828 219.54297 90.35156 C 217.10547 89.96094 214.8125 91.62109 214.42578 94.0625 C 214.03516 96.49609 215.69922 98.78906 218.13672 99.17969 C 220.57422 99.56641 222.86328 97.90625 223.2539 95.46875 Z M 200.4336 159.17578 C 200.96094 159.42188 201.42969 159.78907 201.76563 160.69922 C 200.97657 161.19922 200.32422 161.16016 199.72657 161.0039 C 199.1211 160.85938 198.54688 160.6289 197.96094 160.42578 C 196.78125 160.01953 195.67969 159.4414 194.58594 158.85938 C 192.4336 157.61328 190.45313 156.11328 188.5586 154.52735 C 184.76953 151.35157 181.45313 147.60938 178.76172 143.5039 C 176.0039 139.42188 174.01563 134.91797 172.25782 130.39453 C 171.39063 128.125 170.58594 125.83203 169.95313 123.48828 C 169.61328 122.32422 169.35157 121.13672 169.10157 119.94922 L 168.76953 118.15625 C 168.64844 117.5625 168.66797 116.921878 169.34375 116.140628 C 170.29297 116.52344 170.625 117.03516 170.8164 117.59375 L 171.47266 119.24219 L 172.79688 122.52734 C 173.69532 124.703128 174.57422 126.88281 175.55469 129.01563 C 177.5039 133.28125 179.78516 137.36328 182.17578 141.32813 C 184.58985 145.27735 187.25782 149.09375 190.53125 152.34766 C 192.19922 153.9375 194.0039 155.3789 195.94532 156.60157 C 196.92969 157.17969 197.88282 157.83203 198.90625 158.35157 C 199.41407 158.625 199.90235 158.94922 200.4336 159.17578 " fill="#312e5f"/>
<path transform="matrix(.16037245,0,0,.16058685,149.11725,147.78298)" d="M 473.3164 209.94532 C 472.83985 210.14453 472.3672 210.35157 471.90235 210.57032 C 470.97267 211.00782 470.0547 211.46875 469.17579 211.99219 C 468.28126 212.49219 467.40626 213.02344 466.52735 213.54688 C 466.09376 213.8164 465.63673 214.05078 465.2461 214.39453 C 465.05079 214.5625 464.8789 214.77344 464.71095 214.9961 C 464.63673 215.1211 464.53517 215.20313 464.48439 215.36328 C 464.4414 215.53907 464.45704 215.82032 464.57814 216.27735 C 464.91798 216.60157 465.15626 216.75 465.33204 216.79688 C 465.5 216.82813 465.6211 216.78125 465.76564 216.77344 C 466.03907 216.73438 466.3086 216.6875 466.55079 216.59375 C 467.03907 216.41407 467.46485 216.1289 467.91017 215.875 C 468.78907 215.35547 469.67579 214.84375 470.54298 214.30078 C 471.42579 213.77735 472.26954 213.19532 473.10157 212.58985 C 473.51564 212.28516 473.92189 211.97266 474.32814 211.64844 C 474.7422 211.34766 475.16798 211.0586 475.14064 210.01563 C 474.23829 209.49219 473.78126 209.72657 473.3164 209.94532 Z M 458.78126 198.375 C 459.35157 197.53907 459.9297 196.71094 460.47657 195.85938 C 461.04298 195.01953 461.55079 194.14453 462.03907 193.2539 C 462.28126 192.8086 462.51564 192.35547 462.7422 191.89453 C 462.98439 191.44922 463.2422 191.01563 462.77345 190.08594 C 461.73439 189.99219 461.42579 190.39063 461.10157 190.78125 C 460.7578 191.16016 460.42189 191.54688 460.09767 191.9375 C 459.44923 192.71875 458.82423 193.51563 458.2539 194.35157 C 457.66407 195.17578 457.10548 196.01563 456.53907 196.85547 C 456.26564 197.28125 455.95314 197.67969 455.7539 198.15235 C 455.64454 198.38672 455.58204 198.64844 455.52735 198.91797 C 455.51564 199.0625 455.46095 199.17578 455.48048 199.34375 C 455.51564 199.51953 455.65235 199.76563 455.95704 200.125 C 456.40235 200.27344 456.6797 200.3125 456.85939 200.27735 C 457.02345 200.23828 457.10939 200.14453 457.23829 200.07813 C 457.46876 199.92969 457.6875 199.77344 457.8672 199.58985 C 458.23048 199.22657 458.48829 198.78907 458.78126 198.375 Z M 480.83595 187.96875 L 477.26173 190.98047 C 474.90626 193.01563 472.53907 195.04297 470.25 197.14844 L 463.33595 203.42969 C 462.1836 204.47657 461.03126 205.51953 459.9336 206.6289 C 459.38673 207.1836 458.8789 207.78125 458.3789 208.39063 C 457.89454 209.01172 457.26173 209.47266 457.34376 210.71875 C 458.57814 210.91797 459.09376 210.32813 459.7578 209.90235 C 460.41017 209.46094 461.05079 209.01172 461.65626 208.51563 C 462.85939 207.52735 464.0078 206.47657 465.15626 205.42578 L 472.04689 199.1211 C 474.35548 197.03516 476.58985 194.86719 478.83595 192.70703 L 482.16407 189.42969 C 483.28517 188.34766 484.41017 187.26953 484.94923 185.55469 C 483.1914 185.9336 482.01564 186.95313 480.83595 187.96875 Z M 290.625 192.15625 C 289.6172 189.8164 288.5039 187.53125 287.29298 185.30078 C 284.84767 180.85157 282.14845 176.52735 278.89454 172.55469 L 277.65626 171.08203 L 277.16798 170.44922 C 277.01954 170.23047 276.89454 169.9961 276.75 169.77344 C 276.2422 168.84375 275.9414 167.79297 275.82423 166.6914 C 275.59767 164.48438 276.04689 162.125 276.8125 159.86719 C 277.57423 157.59766 278.63673 155.40235 279.76954 153.23047 C 280.32423 152.13672 280.91407 151.0586 281.4922 149.96094 C 282.0664 148.85547 282.83204 147.91407 282.82814 146.33203 C 281.27735 146.73047 280.59767 147.84375 279.78517 148.82813 C 278.97267 149.82422 278.2422 150.88282 277.5586 151.97266 C 276.20704 154.16407 275.08204 156.51563 274.25 159.01172 C 273.42189 161.4961 272.8672 164.1836 273.15626 166.98438 C 273.3086 168.3789 273.70314 169.78907 274.40626 171.0625 C 274.59376 171.3711 274.77345 171.6875 274.97657 171.98438 L 275.64454 172.83985 L 276.83595 174.2461 C 279.92189 178.0664 282.73048 182.1836 285.26173 186.45313 C 286.54689 188.57813 287.7422 190.75782 288.83204 192.98047 L 290.40626 196.32032 C 290.92189 197.4414 291.55079 198.48047 292.0625 199.6914 C 292.48439 198.375 292.21876 197.01953 291.9414 195.76953 C 291.625 194.51172 291.1328 193.32813 290.625 192.15625 Z M 275.98439 39.464845 C 275.875 39.41797 275.82814 39.4375 275.7461 39.41797 C 275.60939 39.410158 275.47657 39.40625 275.3828 39.441408 C 275.1836 39.496095 275.07814 39.648439 274.9453 39.76953 C 274.6836 40.023439 274.42189 40.273439 274.1836 40.546876 C 273.92579 40.804689 273.71876 41.11328 273.53126 41.4375 C 273.4375 41.601564 273.35548 41.773439 273.27735 41.94922 C 273.1836 42.11328 273.07814 42.265626 273.59376 43.035158 C 274.36329 43.55078 274.51564 43.445314 274.6797 43.351564 C 274.85548 43.273439 275.02735 43.1875 275.1914 43.097658 C 275.51564 42.910158 275.82423 42.703126 276.07814 42.445314 C 276.35548 42.20703 276.60548 41.941408 276.85939 41.683595 C 276.98048 41.55078 277.1289 41.441408 277.1875 41.246095 C 277.22267 41.152345 277.21876 41.01953 277.21095 40.882814 C 277.1914 40.80078 277.21095 40.753908 277.16407 40.64453 C 277.10157 40.51953 276.95704 40.3125 276.67189 39.95703 C 276.3164 39.671876 276.10939 39.523439 275.98439 39.464845 Z M 275.6289 15.304688 C 277.3086 17.105469 278.66798 19.171875 279.4961 21.40625 C 279.66017 21.976563 279.9297 22.523438 280.01173 23.113282 L 280.33595 24.863282 C 280.35157 26.050782 280.4453 27.25 280.1914 28.445313 C 280.1211 29.664063 279.65626 30.816407 279.30079 32.007814 C 279.16798 32.621095 278.7578 33.125 278.60548 33.753908 C 278.4297 34.375 278.30079 35.027345 278.3789 35.85547 C 279.7539 35.179689 280.5625 34.01953 281.1172 32.78125 C 281.63673 31.515625 282.26173 30.269532 282.4922 28.871094 C 282.91017 27.519532 282.84767 26.085938 282.89845 24.664063 L 282.60939 22.550782 C 282.51173 21.84375 282.21876 21.1875 282.02735 20.503907 C 281.08595 17.824219 279.48439 15.460938 277.60548 13.453125 C 276.66798 12.445312 275.66017 11.5078129 274.53517 10.730469 C 273.98439 10.324219 273.36329 10.015625 272.7578 9.703125 C 272.1211 9.453125 271.57423 8.988281 270.51564 9.515625 C 270.59376 10.6796879 271.13673 10.9375 271.58595 11.410156 L 272.9453 12.730469 C 273.41798 13.140625 273.8672 13.566406 274.3164 13.996094 C 274.78907 14.402344 275.20314 14.855469 275.6289 15.304688 Z M 26.734375 187.96485 L 23.664063 189.88672 C 22.683594 190.59766 21.667969 191.26172 20.710938 192.00782 C 16.898438 195 13.359375 198.51563 10.800781 202.75782 C 8.210938 206.95703 6.507812 211.77344 6.09375 216.73047 C 5.8789064 219.20313 5.953125 221.70703 6.390625 224.14453 C 6.6367189 225.35938 6.9414064 226.5625 7.382812 227.71875 C 7.828125 228.85547 8.148438 230.10547 9.5390629 230.8164 C 9.957031 229.35547 9.5390629 228.33985 9.359375 227.1836 C 9.183594 226.04688 9.023438 224.91016 8.90625 223.77735 C 8.6796879 221.50782 8.59375 219.23047 8.785156 216.96875 C 9.152344 212.4375 10.6953129 208.03907 13.078125 204.15235 C 15.460938 200.25 18.625 196.82422 22.175782 193.82813 C 23.050782 193.0664 23.996094 192.3789 24.90625 191.64844 L 27.78125 189.63672 C 28.773438 189.01563 29.773438 188.40625 30.726563 187.70313 C 31.699219 187.03125 32.640626 186.29688 33.48047 185.32422 C 32.222658 185.46094 31.058594 185.83985 29.933594 186.27735 C 28.824219 186.75782 27.789063 187.3789 26.734375 187.96485 Z M 100.390628 105.95703 C 100.50781 106.02734 100.58984 106.015628 100.69141 106.046878 C 100.88281 106.078128 101.07031 106.10156 101.23828 106.07422 C 101.57422 106.03906 101.86328 105.87891 102.16406 105.76172 C 102.765628 105.50781 103.36719 105.26172 103.95703 104.98047 C 104.55469 104.72656 105.125 104.40234 105.6875 104.05859 C 105.96484 103.88281 106.24219 103.69922 106.51172 103.50391 C 106.78906 103.33203 107.078128 103.17578 107.01953 102.21094 C 106.36328 101.5 106.05078 101.60156 105.73047 101.68359 C 105.40234 101.74609 105.078128 101.81641 104.76172 101.89844 C 104.125 102.06641 103.49609 102.25781 102.89844 102.515628 C 102.28906 102.75 101.69531 103.015628 101.09766 103.27344 C 100.80469 103.41016 100.49219 103.51172 100.23047 103.73047 C 100.09766 103.83203 99.98828 103.984378 99.87891 104.14453 C 99.83203 104.24219 99.765628 104.29297 99.734378 104.42578 C 99.71094 104.578128 99.734378 104.83984 99.83594 105.28906 C 100.08984 105.671878 100.26172 105.87109 100.390628 105.95703 Z M 70.91016 142.2461 C 71.33984 141.39844 71.74219 140.54688 72.12891 139.6875 C 72.88281 137.96485 73.61328 136.23438 74.39844 134.52735 C 75.97266 131.1211 77.72656 127.796878 79.73828 124.640628 C 81.79297 121.51953 83.97656 118.49219 86.484378 115.74219 C 87.796878 114.44531 89.046878 113.04297 90.53125 111.93359 C 91.93359 110.68359 93.51172 109.82031 94.70703 108.02344 C 92.65625 108.22266 90.84375 109.140628 89.328128 110.36719 C 87.68359 111.453128 86.28516 112.82031 84.80859 114.109378 C 82.05078 116.88281 79.60156 119.9375 77.49219 123.19922 C 75.39453 126.46875 73.57422 129.89453 71.94531 133.39844 C 71.125 135.15235 70.36719 136.9336 69.75 138.76563 C 69.42969 139.67578 69.19922 140.6211 68.97656 141.5664 C 68.78906 142.51953 68.390628 143.42188 69.05469 144.6211 C 70.26172 143.9961 70.47656 143.09375 70.91016 142.2461 Z M 198 12.253906 C 195.28907 11.019531 192.28516 10.9609379 189.39453 11.269531 C 186.49219 11.613281 183.64063 12.3203129 180.89453 13.300781 C 178.13282 14.265625 175.55469 15.65625 173.0664 17.148438 C 170.57032 18.644532 168.2461 20.394532 166.0586 22.277344 C 161.64844 26.023438 157.76172 30.304688 154.22657 34.828126 C 152.46485 37.09375 150.78907 39.429689 149.29297 41.878908 C 148.55078 43.10547 147.85547 44.359376 147.22266 45.648439 C 146.60157 46.941408 145.80469 48.160158 146.01172 49.878908 C 147.52735 49.08203 148.14453 47.84375 148.98047 46.69922 L 151.42578 43.273439 C 153.03516 40.98047 154.64844 38.691408 156.36328 36.484376 C 159.79297 32.070314 163.5625 27.910157 167.78907 24.304688 C 172.0039 20.695313 176.64063 17.566407 181.73828 15.480469 C 184.28516 14.445312 186.9336 13.667969 189.65235 13.226562 C 192.39453 12.855469 195.08203 12.824219 198 12.253906 Z M 99.46875 303.53126 C 95.328128 242.14844 71.26172 230.46485 70.23828 229.9961 C 69.22656 229.53125 68.03125 229.97657 67.5625 230.98828 C 67.08984 232 67.53125 233.20313 68.53906 233.6836 C 68.765628 233.78907 91.46875 245.19922 95.41797 303.8086 C 98.84375 354.6172 105.6875 366.52735 105.97656 367.01173 C 106.35547 367.64064 107.02344 367.98829 107.71094 367.98829 C 108.0625 367.98829 108.41406 367.89845 108.74219 367.70704 C 109.703128 367.14454 110.02344 365.90235 109.46875 364.9375 C 109.40234 364.8203 102.79297 352.84767 99.46875 303.53126 Z M 195.6914 250.5664 C 194.69922 251.08985 194.3164 252.3164 194.83594 253.3086 C 195.04297 253.70313 215.53907 293.26954 210.47266 329.1797 C 210.3164 330.28907 211.08985 331.3164 212.19922 331.47267 C 212.29688 331.48829 212.39063 331.4922 212.48438 331.4922 C 213.48047 331.4922 214.35157 330.76173 214.49219 329.7461 C 219.73828 292.55079 199.30469 253.08203 198.42969 251.42188 C 197.91016 250.42969 196.67969 250.04688 195.6914 250.5664 Z M 203.96875 424.19923 C 202.8789 423.9297 201.77735 424.58985 201.50782 425.67579 C 200.97266 427.8086 188.44922 478.03907 188.44922 493.84376 C 188.44922 494.96485 189.35547 495.875 190.47657 495.875 C 191.59766 495.875 192.50782 494.96485 192.50782 493.84376 C 192.50782 478.53907 205.3164 427.1797 205.44532 426.66407 C 205.71485 425.57423 205.05469 424.47267 203.96875 424.19923 Z M 143.14063 142.91407 C 143.07422 142.98828 136.23828 150.5039 129.49219 157.58594 C 128.71875 158.39844 128.75 159.6836 129.5625 160.45703 C 129.95313 160.83203 130.45703 161.01953 130.96094 161.01953 C 131.4961 161.01953 132.03125 160.8086 132.42969 160.38672 C 139.21094 153.26953 146.07813 145.72266 146.14453 145.64453 C 146.89844 144.8164 146.83985 143.53125 146.00782 142.77735 C 145.1836 142.02344 143.89844 142.08594 143.14063 142.91407 Z M 258.22657 464.9961 C 258.16017 466.11329 259.01564 467.07423 260.13673 467.14064 C 260.17579 467.14064 260.21485 467.14064 260.2539 467.14064 C 261.3203 467.14064 262.21485 466.3086 262.27735 465.23048 C 264.60939 424.79689 267.60157 372.2422 267.60157 372.2422 L 263.54689 372.01173 C 263.54689 372.01173 260.5586 424.5625 258.22657 464.9961 Z M 234.85547 223.6836 C 234.07422 222.8789 234.08985 221.59375 234.89453 220.8125 C 235.6914 220.02735 236.98047 220.04688 237.76172 220.84766 C 239.11719 222.23438 270.84767 255.29297 266.16798 294.625 C 266.04689 295.65626 265.17189 296.41407 264.15626 296.41407 C 264.07423 296.41407 263.9961 296.41017 263.91407 296.39845 C 262.80079 296.26954 262.0078 295.2578 262.13673 294.14454 C 266.58985 256.71876 235.17578 224.00782 234.85547 223.6836 " fill="#e3386a"/>
</g>
</g>
</svg>
