<?xml version="1.0" standalone="no"?>
<!DOCTYPE svg PUBLIC "-//W3C//DTD SVG 20010904//EN"
 "http://www.w3.org/TR/2001/REC-SVG-20010904/DTD/svg10.dtd">
<svg version="1.0" xmlns="http://www.w3.org/2000/svg"
 width="1080.000000pt" height="1920.000000pt" viewBox="0 0 1080.000000 1920.000000"
 preserveAspectRatio="xMidYMid meet">

<g transform="translate(0.000000,1920.000000) scale(0.100000,-0.100000)"
fill="#000000" stroke="none">
<path d="M6367 12075 c-95 -33 -189 -122 -282 -265 -81 -123 -202 -361 -243
-475 -41 -111 -82 -341 -82 -455 0 -77 4 -93 34 -155 93 -195 257 -276 407
-202 176 86 370 432 424 757 28 162 10 236 -66 287 -61 40 -74 27 -71 -68 9
-212 -115 -589 -241 -734 -24 -27 -46 -57 -49 -66 -10 -25 -123 -80 -168 -81
-76 -1 -100 42 -100 180 0 175 51 388 157 657 86 218 226 452 298 496 101 63
123 -26 46 -188 -38 -79 -77 -126 -180 -216 -37 -32 -31 -51 20 -62 72 -16
245 151 320 310 46 96 34 165 -39 225 -69 57 -129 75 -185 55z m-368 -497
c-66 -132 -142 -312 -154 -368 -5 -19 -10 -30 -12 -23 -12 34 88 277 184 451
57 102 47 70 -18 -60z m-172 -430 c-3 -8 -6 -5 -6 6 -1 11 2 17 5 13 3 -3 4
-12 1 -19z m-10 -40 c-3 -8 -6 -5 -6 6 -1 11 2 17 5 13 3 -3 4 -12 1 -19z"/>
<path d="M5024 11912 c-11 -6 -162 -460 -199 -594 -8 -31 -22 -63 -30 -71 -8
-8 -40 -18 -72 -21 -32 -4 -95 -16 -141 -28 -46 -11 -85 -18 -88 -16 -2 3 2
22 9 44 8 21 17 61 21 88 5 28 34 126 67 219 32 94 59 177 59 186 0 9 12 38
26 64 24 46 24 50 9 73 -19 30 -58 46 -98 42 -27 -3 -32 -10 -63 -93 -37 -96
-96 -282 -164 -510 -23 -77 -46 -144 -51 -150 -5 -5 -24 -15 -41 -21 -45 -15
-57 -38 -34 -63 11 -12 25 -21 33 -21 19 0 17 -17 -27 -215 -22 -99 -43 -211
-46 -250 -6 -70 -6 -70 27 -102 47 -44 82 -51 103 -22 9 13 16 35 16 49 0 14
14 90 30 170 17 80 39 195 51 255 12 68 27 117 37 127 10 10 58 27 107 39 50
11 112 27 140 34 27 8 51 13 53 11 3 -4 -59 -238 -107 -402 -16 -55 -39 -149
-51 -208 -25 -122 -19 -155 32 -182 45 -23 74 -11 92 38 18 50 98 341 121 443
9 39 36 134 61 213 51 161 53 164 161 191 47 11 69 21 71 33 3 17 -4 17 -117
3 -33 -4 -33 -3 -28 28 3 18 37 113 75 212 78 200 102 272 102 308 0 26 -69
97 -94 97 -8 0 -20 2 -28 5 -7 3 -18 1 -24 -3z m-544 -613 c-22 -63 -37 -98
-34 -79 8 41 65 203 70 197 2 -2 -14 -55 -36 -118z m-43 -141 c-3 -8 -6 -5 -6
6 -1 11 2 17 5 13 3 -3 4 -12 1 -19z m299 -594 c-8 -21 -15 -32 -15 -23 -1 22
22 86 26 73 2 -5 -3 -28 -11 -50z"/>
<path d="M5565 11626 c-106 -34 -209 -111 -266 -198 -40 -62 -45 -82 -30 -107
12 -19 31 -6 84 60 51 63 137 126 185 135 30 6 32 5 32 -20 0 -49 -14 -74
-237 -426 -33 -52 -64 -106 -68 -120 -4 -14 -36 -64 -71 -112 -83 -117 -111
-178 -119 -264 -7 -66 -6 -73 16 -93 18 -17 35 -21 85 -21 131 0 476 87 482
122 10 52 -126 56 -281 9 -60 -18 -110 -31 -112 -29 -13 13 192 388 349 636
42 66 134 256 146 301 30 111 -60 170 -195 127z m-197 -738 c-19 -24 -40 -52
-47 -63 -11 -17 -12 -17 -7 -1 7 21 79 115 85 110 2 -2 -12 -23 -31 -46z"/>
<path d="M3826 10188 c-14 -20 -16 -116 -16 -838 0 -722 2 -818 16 -838 15
-21 20 -22 218 -22 184 0 204 2 219 18 15 16 17 54 17 325 l0 307 241 0 c146
0 248 4 260 10 18 10 19 23 19 198 0 133 -4 192 -12 200 -9 9 -80 12 -260 12
l-248 0 0 115 0 115 269 0 c268 0 270 0 285 22 13 18 16 54 16 188 0 134 -3
170 -16 188 l-15 22 -489 0 -489 0 -15 -22z m924 -188 l0 -109 -271 -3 c-254
-3 -271 -4 -285 -22 -19 -27 -20 -354 -1 -379 11 -15 41 -17 262 -19 l250 -3
3 -112 3 -113 -250 0 c-247 0 -250 0 -265 -22 -14 -19 -16 -67 -16 -325 l0
-303 -135 0 -135 0 0 760 0 760 420 0 420 0 0 -110z"/>
<path d="M5096 10188 c-14 -20 -16 -116 -16 -838 0 -722 2 -818 16 -838 15
-21 20 -22 218 -22 184 0 204 2 219 18 16 17 17 90 17 844 0 786 -1 826 -18
841 -16 15 -47 17 -220 17 -196 0 -201 -1 -216 -22z m354 -838 l0 -760 -135 0
-135 0 0 760 0 760 135 0 135 0 0 -760z"/>
<path d="M5796 10188 c-23 -33 -23 -359 0 -382 13 -13 45 -16 195 -16 l179 0
0 -634 c0 -564 2 -636 16 -650 13 -14 47 -16 213 -16 142 0 202 3 214 13 16
11 17 64 19 647 l3 635 183 5 c148 4 185 8 192 20 5 8 10 94 10 191 0 158 -2
178 -18 192 -17 15 -73 17 -605 17 l-586 0 -15 -22z m1124 -187 l0 -110 -173
-3 c-129 -2 -178 -7 -190 -17 -16 -12 -17 -70 -17 -647 l0 -634 -135 0 -135 0
0 625 0 626 -25 24 c-24 25 -27 25 -195 25 l-170 0 0 110 0 110 520 0 520 0 0
-109z"/>
<path d="M4195 7756 c-159 -73 -108 -318 66 -318 154 0 217 204 92 299 -41 31
-113 40 -158 19z m130 -98 c73 -87 -45 -199 -126 -119 -33 33 -37 67 -14 111
17 33 27 38 77 39 29 1 42 -5 63 -31z"/>
<path d="M3721 7738 c7 -13 31 -57 55 -99 39 -67 44 -83 44 -137 l0 -62 40 0
40 0 0 60 c0 53 5 68 50 144 70 119 70 116 22 116 -40 0 -42 -2 -75 -61 l-35
-61 -33 61 c-33 60 -35 61 -77 61 -41 0 -42 -1 -31 -22z"/>
<path d="M4510 7641 c0 -66 4 -131 10 -145 14 -38 54 -59 113 -59 107 0 127
32 127 203 l0 120 -34 0 -34 0 -4 -115 c-3 -125 -8 -135 -60 -135 -40 0 -48
25 -48 144 l0 106 -35 0 -35 0 0 -119z"/>
<path d="M4850 7600 l0 -160 35 0 35 0 0 60 c0 78 16 78 66 0 36 -56 42 -60
77 -60 20 0 37 3 37 8 0 4 -18 33 -39 66 l-39 59 26 22 c22 19 27 32 27 70 0
39 -5 51 -28 71 -25 21 -38 24 -113 24 l-84 0 0 -160z m138 88 c29 -29 2 -68
-47 -68 -18 0 -21 6 -21 40 0 37 2 40 28 40 15 0 33 -5 40 -12z"/>
<path d="M5270 7600 l0 -160 35 0 35 0 0 60 0 60 45 0 45 0 0 -60 0 -60 35 0
35 0 0 160 0 160 -35 0 -35 0 0 -60 0 -60 -45 0 -45 0 0 60 0 60 -35 0 -35 0
0 -160z"/>
<path d="M5600 7600 l0 -160 90 0 90 0 0 30 c0 30 -1 30 -55 30 l-55 0 0 35 0
35 55 0 c54 0 55 0 55 30 0 30 -1 30 -55 30 l-55 0 0 35 0 35 55 0 c54 0 55 0
55 30 l0 30 -90 0 -90 0 0 -160z"/>
<path d="M5987 7753 c-5 -7 -43 -101 -108 -265 l-19 -48 39 0 c33 0 40 4 51
30 12 29 15 30 75 30 60 0 63 -1 75 -30 11 -26 18 -30 51 -30 l39 0 -17 43
c-9 23 -38 94 -64 157 -47 114 -48 115 -82 118 -19 2 -37 -1 -40 -5z m72 -175
c1 -5 -15 -8 -35 -8 -30 0 -35 3 -29 18 4 9 12 30 18 47 l10 29 18 -39 c10
-22 18 -43 18 -47z"/>
<path d="M6270 7600 l0 -160 95 0 95 0 0 30 c0 28 -1 29 -57 32 l-58 3 -3 128
-3 127 -34 0 -35 0 0 -160z"/>
<path d="M6540 7730 c0 -28 3 -30 35 -30 l35 0 0 -130 0 -130 40 0 40 0 0 130
0 130 40 0 c38 0 40 2 40 30 l0 30 -115 0 -115 0 0 -30z"/>
<path d="M6850 7600 l0 -160 35 0 35 0 0 60 0 60 45 0 45 0 0 -60 0 -60 35 0
35 0 0 160 0 160 -35 0 -35 0 0 -60 0 -60 -45 0 -45 0 0 60 0 60 -35 0 -35 0
0 -160z"/>
<path d="M4570 7060 l0 -160 80 0 c93 0 131 15 149 58 13 32 7 75 -14 92 -11
9 -11 17 0 43 17 42 9 83 -23 107 -20 16 -40 20 -108 20 l-84 0 0 -160z m144
77 c13 -21 -9 -47 -40 -47 -21 0 -24 5 -24 33 0 19 3 36 6 40 9 9 47 -8 58
-26z m6 -123 c21 -21 1 -48 -39 -52 -30 -3 -31 -2 -31 38 0 41 1 42 28 35 15
-3 34 -13 42 -21z"/>
<path d="M4900 7091 c0 -120 2 -132 23 -156 28 -33 89 -48 139 -34 74 19 88
51 88 205 l0 114 -40 0 -40 0 0 -113 c0 -122 -6 -137 -50 -137 -44 0 -50 15
-50 137 l0 113 -35 0 -35 0 0 -129z"/>
<path d="M5240 7060 l0 -160 63 0 c119 1 189 59 190 159 1 57 -25 106 -73 138
-27 19 -47 23 -106 23 l-74 0 0 -160z m151 74 c25 -22 33 -68 19 -109 -13 -39
-35 -55 -74 -55 l-26 0 0 96 0 97 32 -7 c17 -3 40 -13 49 -22z"/>
<path d="M5580 7059 l0 -161 79 3 c61 3 86 9 107 25 73 54 94 140 53 214 -33
58 -79 80 -169 80 l-70 0 0 -161z m126 91 c39 -15 53 -39 54 -88 0 -50 -33
-92 -75 -92 l-25 0 0 95 c0 52 4 95 9 95 5 0 22 -5 37 -10z"/>
<path d="M5975 7127 c52 -88 55 -98 55 -160 l0 -67 45 0 45 0 0 65 c0 51 5 74
23 103 13 20 38 63 56 95 l32 57 -43 0 c-42 0 -43 -1 -77 -62 l-34 -61 -34 61
c-34 61 -35 62 -79 62 l-43 0 54 -93z"/>
</g>
</svg>
